/* XPM */
static char *a3pgi_78o1n[] = {
/* columns rows colors chars-per-pixel */
"80 80 230 2 ",
"   c #3B9BBD",
".  c #369DBD",
"X  c #3EA9AE",
"o  c #2CA9BE",
"O  c #3CA3B3",
"+  c #34ABBD",
"@  c #3BABBC",
"#  c #37A7B7",
"$  c #56A69E",
"%  c #53AA9E",
"&  c #58A69D",
"*  c #4C9EAD",
"=  c #439DB5",
"-  c #439CB6",
";  c #4CA7A5",
":  c #4DAAA4",
">  c #44A6AC",
",  c #4AA4AB",
"<  c #43ABAC",
"1  c #4DABAB",
"2  c #47ABA6",
"3  c #53A3A3",
"4  c #50ABA8",
"5  c #4BA9BB",
"6  c #47A8B5",
"7  c #53AAB4",
"8  c #55AABB",
"9  c #5BABBD",
"0  c #77A5BF",
"q  c #0D9FDD",
"w  c #1D95D6",
"e  c #149DD6",
"r  c #1B9CD5",
"t  c #149DDA",
"y  c #1B9EDB",
"u  c #1996D8",
"i  c #1F9DCD",
"p  c #2B95CD",
"a  c #2D9CCE",
"s  c #289ACA",
"d  c #3196C6",
"f  c #359BC4",
"g  c #3B9BC4",
"h  c #349CCB",
"j  c #389BCA",
"k  c #2394D2",
"l  c #239DD4",
"z  c #2B9ED2",
"x  c #249FDE",
"c  c #359FD0",
"v  c #1DABC5",
"b  c #14A6CE",
"n  c #16A8CC",
"m  c #1BA9CC",
"M  c #1BA4CD",
"N  c #0CA2DC",
"B  c #13A3D4",
"V  c #1CA4D4",
"C  c #15A8D2",
"Z  c #13A1DA",
"A  c #1CA2DB",
"S  c #19A8D2",
"D  c #25A4C5",
"F  c #23ABC3",
"G  c #2BABC2",
"H  c #22A4CC",
"J  c #2BA5CB",
"K  c #28A7C7",
"L  c #33AAC3",
"P  c #3DA2CD",
"I  c #38A8C8",
"U  c #24A4D4",
"Y  c #2CA3D4",
"T  c #24A2DB",
"R  c #2CA3DC",
"E  c #21A8D0",
"W  c #33A3D3",
"Q  c #3AA4D4",
"!  c #33A3DB",
"~  c #3CA5DC",
"^  c #3EA8DC",
"/  c #37A8D6",
"(  c #0B9FE1",
")  c #149DE1",
"_  c #1C9EE0",
"`  c #259FE0",
"'  c #08A0E1",
"]  c #19A3E0",
"[  c #29A3E0",
"{  c #3DA6E0",
"}  c #33A5E0",
"|  c #449DC5",
" . c #469EC8",
".. c #539FC3",
"X. c #42ADC3",
"o. c #4AACC4",
"O. c #43A3CC",
"+. c #4BA2CB",
"@. c #4DABCB",
"#. c #47A7C8",
"$. c #5BA2C5",
"%. c #53A4CA",
"&. c #59ABC9",
"*. c #57B1C8",
"=. c #42A6D3",
"-. c #4DAAD4",
";. c #44A6DB",
":. c #43AADC",
">. c #4CABDD",
",. c #49A7D7",
"<. c #54ABD4",
"1. c #5BACD3",
"2. c #53ACDC",
"3. c #5CAEDC",
"4. c #52A7D1",
"5. c #5DB1DD",
"6. c #63A3C3",
"7. c #6CA5C4",
"8. c #65ABC8",
"9. c #7AA6C1",
"0. c #7BAAC3",
"q. c #75A9C7",
"w. c #63B2CD",
"e. c #6AB2C9",
"r. c #76B5CC",
"t. c #63ADD4",
"y. c #68AED7",
"u. c #64B1D4",
"i. c #6CB3D4",
"p. c #64B2DD",
"a. c #6BB4DD",
"s. c #6CB9DF",
"d. c #73B4D4",
"f. c #7BB6D3",
"g. c #7CBBD5",
"h. c #74B6DB",
"j. c #75BADD",
"k. c #7CBBDC",
"l. c #75B9D4",
"z. c #76AFD0",
"x. c #49ABE0",
"c. c #56AEE0",
"v. c #5CB3E1",
"b. c #62B4E1",
"n. c #6CB5E1",
"m. c #6EBAE2",
"M. c #73B6E0",
"N. c #74BBE2",
"B. c #7CBCE1",
"V. c #7EC0DE",
"C. c #7DC1E4",
"Z. c #84A6BD",
"A. c #8BA7BB",
"S. c #85A9BD",
"D. c #8CA9BC",
"F. c #9CA8B7",
"G. c #94A9BB",
"H. c #9CAABA",
"J. c #92A7B8",
"K. c #A5AAB6",
"L. c #ACABB6",
"P. c #A3AAB8",
"I. c #B2ACB5",
"U. c #8CAEC2",
"Y. c #83ABC2",
"T. c #8DB2C5",
"R. c #8BB5CB",
"E. c #85B4CA",
"W. c #92BBCC",
"Q. c #90B6C8",
"!. c #83BCD4",
"~. c #8CBED3",
"^. c #83BEDB",
"/. c #88B6D0",
"(. c #93BED1",
"). c #90ACC0",
"_. c #82BEE1",
"`. c #86C1DC",
"'. c #8CC4DC",
"]. c #8AC1D6",
"[. c #95C3D3",
"{. c #99C5D5",
"}. c #92C5DB",
"|. c #95C9DE",
" X c #9DCCDC",
".X c #9BC9D8",
"XX c #A1CFDC",
"oX c #A3D2DE",
"OX c #84C3E3",
"+X c #8CC5E3",
"@X c #8EC9E4",
"#X c #8CCAE8",
"$X c #92C7E2",
"%X c #93CBE4",
"&X c #9BCEE3",
"*X c #93CDE8",
"=X c #9ACEE8",
"-X c #9DD1E5",
";X c #9CD2E9",
":X c #96D0E8",
">X c #A3D4E5",
",X c #A6D9E6",
"<X c #AADBE6",
"1X c #A3D5E8",
"2X c #A5D9E9",
"3X c #ADDEE9",
"4X c #ABDCE9",
"5X c #A8D7E7",
"6X c #B1DEE9",
"7X c #A1CFE0",
"8X c #AFE5EB",
"9X c #ADE0E7",
"0X c #B2E1EB",
"qX c #B5E2EB",
"wX c #B6E7ED",
"eX c #B5E5EC",
"rX c #B2E5EC",
"tX c #B9E6EC",
"yX c #B8E5EC",
"uX c #B7E9EE",
"iX c #B7E8EE",
"pX c #B7E8ED",
"aX c #B6E9EE",
"sX c #B9E8ED",
"dX c #B8E9EE",
"fX c #B9E9EE",
"gX c #B8EAEE",
"hX c #B9EAEE",
"jX c #BAE9ED",
"kX c #B8E9EE",
/* pixels */
"dXdXdXdXdXdXdXdXdXdXdXdXdXdXdXdXdXdXdXdXdXdXdXdXdXdXdXdXdXdXdXdXdXdXdXdXdXdXdXdXdXdXdXdXdXdXdXdXdXuXuXuXuXuXuXuXuXuXuXuXuXuXuXuXuXuXuXuXuXuXuXuXuXuXuXuXuXuXuXuX",
"dXdXdXdXdXdXdXdXdXdXdXdXdXdXdXdXdXdXdXdXdXdXdXdXdXdXdXdXdXdXdXdXdXdXdXdXdXdXdXdXdXdXdXdXdXdXdXdXuXuXuXuXuXuXuXuXuXuXuXuXuXuXuXuXuXuXuXuXuXuXuXuXuXuXuXuXuXuXuXuX",
"dXdXdXdXdXdXdXdXdXdXdXdXdXdXdXdXdXdXdXdXdXdXdXdXdXdXdXdXdXdXdXdXdXdXdXdXdXdXdXdXdXdXdXdXdXdXdXdXuXuXuXuXuXuXuXuXuXuXuXuXuXuXuXuXuXuXuXuXuXuXuXuXuXuXuXuXuXuXuXuX",
"dXdXdXdXdXdXdXdXdXdXdXdXdXdXdXdXdXdXdXdXdXdXdXdXdXdXdXdXdXdXdXdXdXdXdXdXdXdXdXdXdXdXdXdXdXdXdXdXuXuXuXuXuXuXuXuXuXuXuXuXuXuXuXuXuXuXuXuXuXuXuXuXuXuXuXuXuXuXuXuX",
"dXdXdXdXdXdXdXdXdXdXdXdXdXdXdXdXdXdXdXdXdXdXdXdXdXdXdXdXdXdXdXdXdXdXdXdXdXdXdXdXdXdXdXdXdXdXdXdXuXuXuXuXuXuXuXuXuXuXuXuXuXuXuXuXuXuXuXuXuXuXuXuXuXuXuXuXuXuXuXuX",
"dXdXdXdXdXdXdXdXdXdXdXdXdXdXdXdXdXdXdXdXdXdXdXdXdXdXdXdXdXdXdXdXdXdXdXtXdXdXdXdXdXdXdXdXdXdXdXdXdXdXdXdXdXdXuXuXuXuXuXuXuXuXuXuXuXuXuXuXuXuXuXuXuXuXuXuXuXuXuXuX",
"dXdXdXdXdXdXdXdXdXdXdXdXdXdXdXdXdXdXdXdXdXdXdXdXdXdXdXdXdXdXdXdXdXtXtXtXtXtXtXtXtXdXdXdXdXdXdXdXdXdXdXdXdXdXdXdXuXuXuXuXuXuXuXuXuXuXuXuXuXuXuXuXuXuXuXuXuXuXuXuX",
"dXdXdXdXuXdXdXdXuXuXdXdXdXdXdXdXdXdXdXdXdXdXdXdXdXdXdXdXdXdXdXdXtXtXtXtXtXtXtXtXtXtXdXdXdXdXdXdXdXdXdXdXdXdXdXdXdXuXuXuXuXuXuXuXuXuXuXuXuXuXuXuXuXuXuXuXuXuXuXuX",
"dXdXdXdXuXuXuXuXuXuXdXdXdXdXdXdXuXuXdXdXdXdXdXdXdXdXdXdXdXdXdXtXtXtXtXtXtXtXtXtXtXtXtXtXdXdXdXdXdXdXdXdXdXdXdXdXdXdXuXuXuXuXuXuXuXuXuXuXuXuXuXuXuXuXuXuXuXuXuXuX",
"uXuXuXuXuXuXuXuXuXuXuXuXuXuXuXuXuXuXuXdXdXdXdXdXdXdXdXdXdXtXtXtXtXtXyXyXyXyXyXyXtXtXtXtXtXdXdXdXdXdXdXdXdXdXdXdXdXdXuXuXuXuXuXuXuXuXuXuXuXuXuXuXuXuXuXuXuXuXuXuX",
"uXuXuXuXuXuXuXuXuXuXuXuXuXuXuXuXuXuXuXuXuXdXdXdXdXdXdXtXtXtXtXqXqXqXqXqXqXqXqXqXqXqXqXwXwXwXwXwXdXdXdXdXdXdXdXdXdXuXuXuXuXuXuXuXuXuXuXuXuXuXuXuXuXuXuXuXuXuXuXuX",
"uXuXuXuXuXuXuXuXuXuXuXuXuXuXuXuXuXuXuXuXuXuXuXwXwXwXwXwXqXqXqX0X6X6X6X6X6X6X6X6X6X6X0X0XrXrXrXwXwXwXwXwXuXuXuXuXuXuXuXuXuXuXuXuXuXuXuXuXuXuXuXuXuXuXuXuXuXuXuXuX",
"uXuXuXuXuXuXuXuXuXuXuXuXuXuXuXuXuXuXuXwXwXwXwXwXqXqX0X0X0X4X4X4X4X4X4X4X4X4X4X4X4X4X<X<X4X4X9X9XrXrXrXwXwXwXwXwXuXuXuXuXuXuXuXuXuXuXuXuXuXuXuXuXuXuXuXuXuXuXuXuX",
"uXuXuXuXuXuXuXuXuXuXuXuXuXuXuXuXuXwXwXwXwXwX0X0X0X4X4X4X4X,X,X,X>X>X>X-X-X-X-X;X;X;X;X1X2X2X2X<X<X4X9XrXrXrXwXwXwXwXuXuXuXuXuXuXuXuXuXuXuXuXuXuXuXuXuXuXuXuXuXuX",
"uXuXuXuXuXuXuXuXuXuXuXuXuXuXuXuXwXwXwXwXqX0X0X4X4X,X,X,X>X-X-X-X%X%X%X%X%X@X@X@X%X%X*X*X:X:X;X;X1X2X4X4X4X9XrXrXwXwXwXuXuXdXdXdXdXuXuXuXuXuXuXuXuXuXuXuXuXuXuXuX",
"uXuXuXuXuXuXuXuXuXuXuXuXuXuXuXwXwXwXwXqX0X0X4X,X,X>X>X-X&X%X%X@X+XOXOXOXOXOXOXOXOXOXOXOX#X#X*X*X:X;X1X2X4X4X4X0XrXwXwXuXuXdXdXdXdXdXuXuXuXuXuXuXuXuXuXuXuXuXuXuX",
"uXuXuXuXuXuXuXuXuXuXuXuXuXuXwXwXwXwXqX0X6X4X,X,X>X&X&X%X+X'.`.`.B.B.N.N.N.N.N.N.N.N.N.N.B.C.OX#X*X*X=X1X1X5X4X4X0XrXwXwXdXdXdXdXdXdXuXuXuXuXuXuXuXuXuXuXuXuXuXuX",
"uXuXuXuXuXuXuXuXuXuXuXuXuXuXwXwXwXqXqX6X4X,X,X>X&X%X}.`.^.^.k.j.s.a.p.p.p.b.b.b.b.b.b.n.m.N.B._.OX@X%X&X>X>X5X4X4X0XwXwXuXdXdXdXdXdXuXuXuXuXuXuXuXuXuXuXuXuXuXuX",
"uXuXuXuXuXuXuXuXuXuXuXuXuXwXwXwXqX0X6X4X<X,X>X&X|.'.`.^.k.h.a.a.p.3.3.2.2.2.2.2.c.c.c.v.b.b.n.N.B.OX@X%X&X-X>X,X4X6X0XwXwXuXdXdXdXdXuXuXuXuXuXuXuXuXuXuXuXuXuXuX",
"uXuXuXuXuXuXuXuXuXuXuXuXuXwXwXqX0X6X4X,X5X>X&X|.'.`.g.l.d.u.t.3.2.2.>.;.;.;.;.;.>.>.>.2.2.3.p.s.j.B._.+X$X&X>X,X,X4X0X0XwXwXuXdXuXuXuXuXuXuXuXuXuXuXuXuXuXuXuXuX",
"uXuXuXuXuXuXuXuXuXuXuXuXwXwXrX0X6X3X,X,X>X&X|.'.`.g.l.i.u.t.1.<.-.;.;.~ ~ ~ ~ ~ ~ ;.;.,.2.2.3.p.a.h.^.^.'.$X&X>X,X,X4X0XqXwXwXuXuXuXuXuXuXuXuXuXuXuXuXuXuXuXuXuX",
"uXuXuXuXuXuXuXdXuXuXuXwXwXrX0X4X3X,X,X>X&X|.'.`.g.l.i.u.1.1.<.-.=.Q Q ! ! ! ! ! Q Q =.=.-.<.1.t.u.d.f.^.^.'.|.&X>X,X,X4X0XqXwXwXwXuXuXuXuXuXuXuXuXuXuXuXuXuXuXuX",
"uXuXuXuXuXuXdXdXdXdXuXwXwX0X9X4X,X>X-X&X|.'.`.g.l.i.w.*.&.@.@.=.Q W W Y Y Y Y W W Q P O.#.@.&.1.w.i.d.f.!.^.'.|.&X>X,X4X4X0X0XwXwXwXwXuXuXuXuXuXuXuXuXuXuXuXuXuX",
"uXuXuXuXuXuXdXdXdXdXuXwXrX0X4X,X>X-X&X|.'.`.g.l.i.w.*.*.@.#.P I W Y Y U U U Y Y W I I #.#.o.&.&.&.8.e.r.f.!.].'.|.&X>X,X4X4X0XrXwXwXwXuXuXuXuXuXuXuXuXuXuXuXuXuX",
"uXuXuXuXuXuXdXdXdXdXwXwX0X4X4X,X-X%X}.`.^.g.l.i.w.*.*.o.X.I I J J U U U U U J J I I I 5 5 5 8 8 9 8.8.e.r.f.!.].}.|.-X,X,X4X4X0XrXwXwXwXuXuXuXuXuXuXuXuXuXuXuXuX",
"uXuXuXuXuXuXdXdXdXdXwXwX0X4X,X-X%X}.`.^.k.d.i.w.*.*.o.X.I L L K H E S V V E H K L + @ 6 6 5 7 7 8 8 9 8.e.r.f.!.].}. X>X,X4X4X4XrXrXwXwXuXuXuXuXdXuXuXuXuXuXuXuX",
"uXuXuXuXuXuXdXdXdXtXwXqX9X<X>X&X%X`.^.l.i.u.w.*.*.o.X.@ + G G F E S S S S m F K + @ X < 1 1 1 7 7 7 8 9 9 e.r.f.^.'.|.&X>X,X4X4X3XrXrXwXuXuXuXuXdXuXuXuXuXuXuXuX",
"uXuXuXuXuXuXdXdXtXtXwX0X4X,X-X%X+X^.k.i.u.1.&.@.o.X.@ + o o F v n n C C C m F G + # < < 1 1 1 1 1 7 7 8 9 8.e.r.g.].'.%X&X>X1X4X3XrXrXwXuXuXuXdXdXuXuXuXuXuXuXuX",
"uXuXuXuXuXuXdXtXtXwXqX0X4X,X-X%X`.k.h.u.1.<.@.#.X.L + o o o v v n b B B C n F G + X < : : : : 1 1 1 7 7 8 9 8.e.l.!.`.$X&X&X1X5X4X9XrXwXuXuXdXdXdXuXuXuXuXuXuXuX",
"uXuXuXuXuXuXtXtXtXwXqX6X4X>X&X@X`.j.a.t.<.-.#.X.I L o o o F v n b B B B C M D o # X < : : : : ; ; 1 , 7 7 9 8.e.d.g.^.+X$X&X1X1X4X3XrXwXuXuXdXdXdXuXuXuXuXuXuXuX",
"uXuXuXuXuXuXwXwXwXqX0X4X4X>X%X+Xk.s.p.1.-.=.O.I L G G F F v v n b B B B B M D o # X ; : % % : : ; , , 6 5 8 &.w.i.l.k.`.+X%X=X1X2X3XrXrXuXuXdXdXuXuXuXuXuXuXuXuX",
"dXuXuXuXuXwXwXwXwXqX6X4X,X-X%XOXj.a.3.<.,.=.P I J K F F v v n b B B B B B M D o # > ; % % % % : ; , > 6 6 5 &.&.w.d.k.^.+X$X&X;X2X<X9XrXuXuXdXdXuXuXuXuXwXwXwXwX",
"dXuXuXuXwXwXwXwXqXqX6X4X>X-X@XC.j.p.2.>.=.Q W J K K F v v n n b B B e e r i s o O > ; % % % % : ; > > 6 6 5 o.*.w.i.h.k._.@X%X:X1X4X9XrXuXuXuXuXuXuXuXwXwXwXwXwX",
"dXuXuXuXwXwXwXqXqX0X4X,X>X%X+XC.s.5.>.;.Q W Y U J E m m n b b B B e e e r l s . O , 3 $ & % % : ; > > 6 6 5 o.*.*.u.a.k.B.OX$X=X1X2X9XrXuXuXuXuXuXuXwXwXwXrXrXrX",
"dXuXuXuXwXwXwXqXqX6X4X5X-X%XOXB.a.5.>.~ ! Y U U V M n n b b C B e e e w w p d . - , 3 $ & $ $ ; ; > X # @ X.o.@.1.u.a.h.B.OX@X*X;X2X9XrXuXuXuXuXuXuXwXrXrXrXrXrX",
"dXuXuXuXwXwXwXqXqX6X4X,X-X%XOXN.p.2.:.Q R U U A V S C C C C B B e e u w k p d   - * 3 3 & $ 3 ; > X O # @ I X.@.<.3.p.s.B._.#X*X;X2X4XrXwXuXuXuXuXuXwXrXrXrXrXrX",
"uXuXuXuXwXwXwXqX6X6X4X,X-X%XOXN.b.2.:.! R T A V V B C C B B B e e e u w k p d   - * 3 3 3 3 ; ; > O # + + I P @.-.1.p.a.M.B.OX%X:X2X4XrXwXuXdXuXuXwXrXrXrXrXrXrX",
"uXuXuXuXwXwXwXqX6X6X4X,X&X@XOXN.5.>.^ ! R T A Z B B B B B B B e e u w w k p d   - * * 3 3 3 , > O # o o G L I =.-.<.p.a.M.B.OX%X:X2X<XrXwXuXdXuXuXwXrXrXrXrXrXrX",
"uXuXuXuXwXwXqXqX6X6X<X>X&X@XOXm.v.>.^ R T A A Z Z Z N N N N Z t e w w k k p d g - = * , , , > O # o G D K J W Q ,.2.3.a.M.B.OX%X:X2X<XrXwXuXuXuXuXwXrXrXrXrXrXrX",
"uXuXuXuXwXwXqXqX6X6X5X>X&X@XC.m.v.x.^ R T y t Z N N N N N N N t e u w k k p d f   - = = > > O # o D D H H U W / :.2.3.a.M.B.OX%X-X2X<X0XwXuXuXuXuXwXrXrXrXrXrXrX",
"uXuXuXuXaXrXrX0X6X6X5X>X&X@XOXm.v.x.^ R T y t t N N N N N N q t u w k k p p d f     - -   O # o D H M S V U Y / :.>.3.a.M.B.OX%X-X2X<XrXwXuXuXuXuXwXrXrXrXrXrXrX",
"uXuXuXaXaXrXrX0X6X6X5X>X&X@XOXm.v.x.{ R x y t t q ' N N N N q t u w k p p d d g g         . K D H M B B Z A T ! :.>.3.a.M.B.+X%X-X2X<XrXwXuXuXuXuXwXrXrXrXrXrXrX",
"uXuXaXaXrXrXrX0X6X6X4X,X&X%XOXN.v.x.{ } ` _ ) ( ( ' ' ' N N t t r l p a d h f g g g g g f f s H V B Z Z Z A T ! :.>.3.a.M.B.+X%X-X2X<X0XwXwXuXuXuXwXrXrXrXrXrXrX",
"uXaXaXaXrXrXrX0X6X6X4X,X-X%XOXN.b.x.x.} ` _ ) ) ( ( ' ' ' q t y l z a h j g g g g g g g g h a l V B N N Z ] [ } :.>.5.s.M._.+X%X-X2X<X0XwXwXuXuXwXwXrXrXrXrXrXrX",
"uXaXaXaXrXrXrX0X0X6X4X,X-X%XOXN.b.c.x.} [ ` _ ) ( ( ' ' ( q t r l a j j | | | | | | | | g j J l r t t Z ] ] [ } x.c.p.s.B._.+X%X-X2X4X0XwXwXuXuXwXwXrXrXrXrXrXrX",
"aXaXaXaXrXrXrX0X0X6X4X,X-X%XOXN.b.c.x.{ } ` _ ) ( ( ( ' q t y l z j  . ...........%.+.+.+.P W z l y t Z ] ] [ } x.c.p.M.B.OX$X&X>X2X4X0XwXwXuXuXwXwXrXrXrXrXrXrX",
"aXaXaXrXrXrXrX0X0X6X4X4X>X%X#XB.n.v.x.{ } ` ` _ ) ( ( ( q t r z h  .....$.$.6.6.6.6.$.$.%.+.O.W z l y y A T R ^ >.5.n.N._.+X%X&X>X4X4X0XrXwXuXuXuXwXrXrXrXrXrXrX",
"aXaXaXrXrXrXrXrX0X0X4X4X1X-X#XC.m.b.c.x.{ ! ` _ ) ( q q q t l Y P +.$.6.7.0 0 0 0 0 7.7.6.$.%.O.c z l y T T ! :.>.5.s.B.OX$X&X-X,X<X9XrXrXuXuXuXuXwXrXrXrXrXrXrX",
"rXrXrXrXrXrXrXrX0X0X6X<X2X-X@XOXN.b.c.x.;.! x x _ t q q Z V Y W +.$.7.0 0 Z.Z.Z.Z.Z.Z.0 q.7.$.%.O.c z l T R Q :.2.p.j._.+X%X&X>X2X<X9XrXrXuXuXuXuXrXrXrXrXrXrXrX",
"rXrXrXrXrXrXrXwXqX0X0X4X2X-X%XOXB.n.b.c.>.~ ! x y t t t Z U Y P %.6.q.Z.A.J.J.J.H.J.G.D.Z.9.7.$.+. .c z Y W ^ >.5.s.k.OX$X&X-X,X4X4X9XrXrXuXuXuXrXrXrXrXrXrXrXrX",
"rXrXrXrXrXrXrXwXwXqX0X4X<X1X:X@XOXN.n.3.2.;.~ R T A Z Z V U W +.$.7.0 D.J.H.P.K.K.P.P.H.J.D.9.7.$.+.P Q Q Q :.2.p.j._.+X%X&X>X1X<X9X9XrXaXuXuXuXaXrXrXrXrXrXrXrX",
"rXrXrXrXrXrXrXwXwXwX0X9X<X2X-X%XOXB.M.p.3.>.;.! R T A A U Y P +.6.q.S.J.P.K.L.L.I.L.L.P.H.G.Z.q.6.%.+.O.=.=.-.5.a.k.OX%X&X>X1X4X4X9XrXrXaXaXuXuXaXrXrXrXrXrXrXrX",
"rXrXrXrXrXrXrXwXwXwXrX9X<X2X;X%X#X_.N.n.p.2.;.^ ! R T U U W O.%.6.9.D.H.P.L.I.I.I.I.I.L.P.H.D.9.7.$.%.+.-.-.<.p.j.k.+X%X&X>X5X4X4X9XrXrXaXaXaXaXaXrXrXrXrXrXrXrX",
"rXrXrXrXrXrXrXwXwXwXrX0X9X2X1X-X%XOXB.M.a.p.2.:.^ ! R Y Y Q O.%.7.9.D.H.P.L.L.I.I.I.I.L.P.H.D.Y.q.8.&.%.<.1.p.a.j.OX%X&X>X1X4X4X9X9XrXrXaXaXaXaXrXrXrXrXrXrXrXrX",
"rXrXrXrXrXrXrXwXwXwXrX0X9X<X2X;X%X@XOXB.N.a.5.2.;.^ Q W Q =.+.$.7.9.D.J.H.K.L.L.L.L.L.L.P.H.G.Y.q.7.8.1.1.u.a.j.V.+X%X-X,X4X4X4X9X9XrXrXrXaXaXrXrXrXrXrXrXrXrXrX",
"rXrXrXrXrXrXrXwXwXwXrXrX9X<X2X1X-X%X@XOXB.N.a.5.2.>.:.=.=.-.%.$.7.9.S.J.H.F.P.K.K.K.K.K.P.H.G.Y.0.q.e.y.u.a.l.k.OX%X&X>X4X4X4X4X9XrXrXrXrXrXrXrXrXrXrXrXrXrXrXrX",
"rXrXrXrXrXrXrXrXrXrXrXrX9X4X<X2X>X-X%X@X+XB.N.a.p.3.2.>.-.4.&.8.7.q.Z.D.J.J.H.F.F.F.F.H.H.G.).U.Y.z.z.d.l.k.k.`.@X%X-X,X<X4X9XrXrXrXrXrXrXrXrXrXrXrXrXrXrXrXrXrX",
"rXrXrXrXrXrXrXrXrXrXrXrX0X9X<X4X1X>X-X%X%X+XOXj.s.p.3.3.1.1.t.8.7.q.9.S.A.A.G.J.J.J.J.J.J.G.U.U.E.E.f.g.^.^.`.@X%X-X>X4X4X9XrXrXrXrXrXrXrXrXrXrXrXrXrXrXrXrXrXrX",
"rXrXrXrXrXrXrXrXrXrXrXrXrX9X4X<X4X2X>X-X&X%X+XOXk.h.a.y.t.t.t.8.7.q.9.0 Z.Z.A.A.A.A.J.G.G.).U.T.R././.!.`.'.|.%X-X>X,X<X9XrXrXrXrXrXrXrXrXrXrXrXrXrXrXrXrXrXrXrX",
"rXrXrXrXrXrXrXrXrXrXrXrXrX0X9X4X4X4X,X,X>X&X%X+X_.k.j.h.i.i.z.z.q.q.q.9.9.Z.Z.S.S.D.D.D.U.T.T.R.R.~.~.}.}.|.&X-X>X,X<X9X0XrXrXrXrXrXrXrXrXrXrXrXrXrXrXrXrXrXrXrX",
"rXrXrXrXrXrXrXrXrXrXrXrXrXrX0X0X9X4X4X,X,X>X&X%X+X^.k.f.f.d.d.z.z.z.0.0.0.0.Y.Y.Y.U.U.T.T.T.Q.W.(.(.[.}.|.&X-X>X,X<X4X9XrXrXrXrXrXrXrXrXrXrXrXrXrXrXrXrXrXrXrXrX",
"rXrXrXrXrXrXrXrXrXrXrXrXrXrXrX0X0X9X4X4X,X,X-X&X%X+X`.^.^.g.g.f.f.r.0.0.E.E.E.E.T.T.T.T.Q.Q.W.(.[.{.{. X&X>X,X,X4X4X9X0XrXrXrXrXrXrXrXrXrXrXrXrXrXrXrXrXrXrXrXrX",
"rXrXrXrXrXrXrXrXrXrXrXrXrXrXrXrX0X0X9X4X<X,X>X-X&X%X+X`.`.^.^.^.!.!././.E.E.R.R.R.R.Q.Q.W.W.[.{..X.X X7X>X,X,X,X<X9X9XrXrXrXrXrXrXrXrXrXrXrXrXrXrXrXrXrXrXrXrXrX",
"rXrXrXrXrXrXrXrXrXrXrXrXrXrXrXrX0X0X0X9X4X<X,X>X-X&X%X%X|.}.'.'.].].~.~.~.~.~.(.(.(.[.[.[.{..X.XXXXX>X>X,X,X,X4X9X9X9XrXrXrXrXrXrXrXrXrXrXrXrXrXrXrXrXrXrXrXrXrX",
"rXrXrXrXrXrXrXrXrXrXrXrXrXrXrXrXrXrX0X9X9X<X<X,X1X>X-X-X&X%X|.|.|.}.}.}.}.}.}.}.}.{.{..X.X XXXoXoX>X>X5X,X<X3X4X9X9XrXrXrXrXrXrXrXrXrXrXrXrXrXrXrXrXrXrXrXrXrXrX",
"rXrXrX8XrXrXrXrXrXrXrXrXrX8X8XrXrXrX8X9X9X9X<X<X,X,X1X>X>X-X-X-X-X X X X X X X X X XXXXXoXoXoX>X>X,X,X,X3X3X9X9X9X8XrXrXrXrXrXrXrXrXrX8XrXrXrXrXrXrXrXrXrX8X8X8X",
"8X8X8X8X8X8X8X8XrXrXrXrX8X8X8X8X8X8X8X8X8X9X9X9X9X<X<X,X,X,X,X1X>X>X>X>X>X>X>XoXoXoX>X>X,X,X,X,X<X<X3X3X9X9X9X9X8X8X8X8XrXrXrX8X8X8X8X8X8X8X8X8XrXrXrXrX8X8X8X8X",
"8X8X8X8X8X8X8X8X8X8X8X8X8X8X8X8X8X8X8X8X8X8X8X9X9X9X9X9X9X9X<X<X<X,X,X,X,X,X,X,X,X,X<X<X<X<X<X3X9X9X9X9X9X0XrXrX8X8X8X8X8X8X8X8X8X8X8X8X8X8X8X8X8X8X8X8X8X8X8X8X",
"8X8X8X8X8X8X8X8X8X8X8X8X8X8X8X8X8X8X8X8X8X8X8X8X8X8X8X8X8X9X9X9X9X4X4X<X<X<X<X<X3X9X9X9X9X9X9X9X9X9X8X8XrXrXrXrXrX8X8X8X8X8X8X8X8X8X8X8X8X8X8X8X8X8X8X8X8X8X8X8X",
"8X8X8X8X8X8X8X8X8X8X8X8X8X8X8X8X8X8X8X8X8XrXrXrXrXrXrXrXrXrXrX8X9X9X9X9X9X9X9X9X9X9X9X9X9X9X8X8X8X8XrXrXrXrXrXrXrXrX8X8X8X8X8X8X8X8X8X8X8X8X8X8X8X8X8X8X8X8X8X8X",
"8X8X8X8X8X8X8X8X8X8X8X8X8X8X8X8X8X8X8X8X8XrXrXrXrXrXrXrXrXrXrXrXrXrXrX9X9X9X9X9X8X8X8X8X8X8X8XrXrXrXrXrXrXrXrXrXrXrX8X8X8X8X8X8X8X8X8X8X8X8X8X8X8X8X8X8X8X8X8X8X",
"8X8X8X8X8X8X8X8X8X8X8X8X8X8X8X8X8X8X8X8X8XrXrXrXrXrXrXrXrXrXrXrXrXrXrXrXrX8X8X8X8X8XrXrX8X8XrXrXrXrXrXrXrXrXrXrXrXrX8X8X8X8X8X8X8X8X8X8X8X8X8X8X8X8X8X8X8X8X8X8X",
"8X8X8X8X8X8X8X8X8X8X8X8X8X8X8X8X8X8X8X8X8XrXrXrXrXrXrXrXrXrXrXrXrXrXrXrX8X8X8X8X8X8X8X8X8XrXrXrXrXrXrXrXrXrXrXrXrX8X8X8X8X8X8X8X8X8X8X8X8X8X8X8X8X8X8X8X8X8X8X8X",
"8X8X8X8X8X8X8X8X8X8X8X8X8X8X8X8X8X8X8X8X8X8XrXrXrXrXrXrXrXrXrXrXrXrXrX8X8X8X8X8X8X8X8X8X8X8X8XrX8X8XrXrXrXrXrXrX8X8X8X8X8X8X8X8X8X8X8X8X8X8X8X8X8X8X8X8X8X8X8X8X",
"8X8X8X8X8X8X8X8X8X8X8X8X8X8X8X8X8X8X8X8X8X8X8X8X8X8X8X8X8X8XrX8X8X8X8X8X8X8X8X8X8X8X8X8X8X8X8X8X8X8X8X8XrXrX8X8X8X8X8X8X8X8X8X8X8X8X8X8X8X8X8X8X8X8X8X8X8X8X8X8X",
"8X8X8X8X8X8X8X8X8X8X8X8X8X8X8X8X8X8X8X8X8X8X8X8X8X8X8X8X8X8X8X8X8X8X8X8X8X8X8X8X8X8X8X8X8X8X8X8X8X8X8X8X8X8X8X8X8X8X8X8X8X8X8X8X8X8X8X8X8X8X8X8X8X8X8X8X8X8X8X8X",
"8X8X8X8X8X8X8X8X8X8X8X8X8X8X8X8X8X8X8X8X8X8X8X8X8X8X8X8X8X8X8X8X8X8X8X8X8X8X8X8X8X8X8X8X8X8X8X8X8X8X8X8X8X8X8X8X8X8X8X8X8X8X8X8X8X8X8X8X8X8X8X8X8X8X8X8X8X8X8X8X",
"8X8X8X8X8X8X8X8X8X8X8X8X8X8X8X8X8X8X8X8X8X8X8X8X8X8X8X8X8X8X8X8X8X8X8X8X8X8X8X8X8X8X8X8X8X8X8X8X8X8X8X8X8X8X8X8X8X8X8X8X8X8X8X8X8X8X8X8X8X8X8X8X8X8X8X8X8X8X8X8X",
"8X8X8X8X8X8X8X8X8X8X8X8X8X8X8X8X8X8X8X8X8X8X8X8X8X8X8X8X8X8X8X8X8X8X8X8X8X8X8X8X8X8X8X8X8X8X8X8X8X8X8X8X8X8X8X8X8X8X8X8X8X8X8X8X8X8X8X8X8X8X8X8X8X8X8X8X8X8X8X8X",
"8X8X8X8X8X8X8X8X8X8X8X8X8X8X8X8X8X8X8X8X8X8X8X8X8X8X8X8X8X8X8X8X8X8X8X8X8X8X8X8X8X8X8X8X8X8X8X8X8X8X8X8X8X8X8X8X8X8X8X8X8X8X8X8X8X8X8X8X8X8X8X8X8X8X8X8X8X8X8X8X"
};
