/* XPM */
static char *apubc_enr8l[] = {
/* columns rows colors chars-per-pixel */
"80 80 221 2 ",
"   c #6C8EAF",
".  c #7B93A7",
"X  c #7394AC",
"o  c #7B95AB",
"O  c #7C99AE",
"+  c #7498AF",
"@  c #6C8FB0",
"#  c #6E90B1",
"$  c #7394B3",
"%  c #749BB4",
"&  c #7B9AB5",
"*  c #7E9CB8",
"=  c #7996B2",
"-  c #7BA4BB",
";  c #7DA0B5",
":  c #7FAAC0",
">  c #8496A6",
",  c #8B99A7",
"<  c #849AAC",
"1  c #8C9CAB",
"2  c #8197A9",
"3  c #939FAA",
"4  c #909CA7",
"5  c #839CB4",
"6  c #899FB3",
"7  c #829EB9",
"8  c #8EA0AF",
"9  c #95A1AD",
"0  c #9BA5AE",
"q  c #8CA2B5",
"w  c #84A2BB",
"e  c #8CA4BC",
"r  c #84A9BE",
"t  c #8CA9BD",
"y  c #84A2B5",
"u  c #94A5B4",
"i  c #9AA7B1",
"p  c #9BABB4",
"a  c #92A6B9",
"s  c #94AABC",
"d  c #9BADBA",
"f  c #93A8B7",
"g  c #9EB3BB",
"h  c #97B0BF",
"j  c #A3ABB3",
"k  c #A2AEB9",
"l  c #A8AEB5",
"z  c #AAB0B7",
"x  c #A3B4BC",
"c  c #ACB5BB",
"v  c #A4B8BF",
"b  c #ADB8BF",
"n  c #B1B6BC",
"m  c #B4B9BE",
"M  c #B8BBBF",
"N  c #83ADC2",
"B  c #8DAAC1",
"V  c #8DA7C0",
"C  c #93ACC2",
"Z  c #99AFC3",
"A  c #86B1C5",
"S  c #8CB1C4",
"D  c #8BB6C9",
"F  c #8EBBCD",
"G  c #87B5C8",
"H  c #94B2C6",
"J  c #9BB2C5",
"K  c #9FB8C0",
"L  c #93B5C9",
"P  c #9CB6C9",
"I  c #93BBCD",
"U  c #9BBBCC",
"Y  c #93BED1",
"T  c #9CBED1",
"R  c #A2B5C4",
"E  c #A2BCC4",
"W  c #ACBBC3",
"Q  c #A2B6C9",
"!  c #A4BBCC",
"~  c #AABDCD",
"^  c #A8B7C5",
"/  c #B3BCC3",
"(  c #BABEC3",
")  c #B2BFC8",
"_  c #A3BFD0",
"`  c #ABBFD0",
"'  c #98C1CF",
"]  c #95C3D3",
"[  c #9BC4D4",
"{  c #97C8D6",
"}  c #9AC9D6",
"|  c #9CCCD9",
" . c #9FD0DC",
".. c #A3C0C7",
"X. c #A4C5CC",
"o. c #ACC3CC",
"O. c #A6C8CF",
"+. c #ACC9CE",
"@. c #ACC0C7",
"#. c #BDC1C5",
"$. c #B3C3CC",
"%. c #BCC4CB",
"&. c #B4C3C9",
"*. c #A3C4D3",
"=. c #ABC3D3",
"-. c #A6CBD5",
";. c #AACBD5",
":. c #A3CDDA",
">. c #ABCDD9",
",. c #B3C5D3",
"<. c #BBC7D2",
"1. c #B4CBD4",
"2. c #BACBD5",
"3. c #B5CDD9",
"4. c #BCCDDA",
"5. c #AAD1D7",
"6. c #A3D2DD",
"7. c #ABD4DC",
"8. c #ADD9DE",
"9. c #B5D1D6",
"0. c #BBD0D7",
"q. c #B4D4DC",
"w. c #BCD3DC",
"e. c #B4D9DE",
"r. c #BAD9DE",
"t. c #A5D5E0",
"y. c #ABD6E0",
"u. c #A7D9E1",
"i. c #ADDCE3",
"p. c #AFDFE8",
"a. c #B5D6E1",
"s. c #BAD6E0",
"d. c #B4DDE4",
"f. c #BBDDE3",
"g. c #AFE1E6",
"h. c #AFE1E8",
"j. c #B3E1E6",
"k. c #BBE1E6",
"l. c #B2E5EA",
"z. c #B4E6EB",
"x. c #B2E6EB",
"c. c #BAE2E8",
"v. c #BDE2E9",
"b. c #BDE5EB",
"n. c #BEE7EC",
"m. c #BAE5EA",
"M. c #B4E9ED",
"N. c #B5E9ED",
"B. c #B6E9ED",
"V. c #B7EAEE",
"C. c #B3E8ED",
"Z. c #B9E9ED",
"A. c #BBE9ED",
"S. c #BAE9ED",
"D. c #B9EAEE",
"F. c #BCE9ED",
"G. c #BEE9ED",
"H. c #BDEAEE",
"J. c #B9ECEF",
"K. c #BBEAEE",
"L. c #BAEDF0",
"P. c #BDEBF0",
"I. c #C2C3C6",
"U. c #C2C6CA",
"Y. c #C5C9CD",
"T. c #CACCCE",
"R. c #C4CCD3",
"E. c #CACED2",
"W. c #C2CFDA",
"Q. c #CDD1D5",
"!. c #C4D3DD",
"~. c #CCD5DA",
"^. c #C1D9DF",
"/. c #CDD8DE",
"(. c #D2D4D5",
"). c #D2D6D9",
"_. c #D4D9DD",
"`. c #DADBDD",
"'. c #D8D7D8",
"]. c #C4D6E0",
"[. c #CBD6E1",
"{. c #C2DCE3",
"}. c #CCDCE3",
"|. c #D3DDE3",
" X c #DBDFE1",
".X c #D6DFE8",
"XX c #E0DFE0",
"oX c #C2E0E6",
"OX c #CEE0E7",
"+X c #C1E5EB",
"@X c #C5E5EB",
"#X c #C3E5EA",
"$X c #CBE4EA",
"%X c #C1E9ED",
"&X c #C3EBEE",
"*X c #CBEBEE",
"=X c #D4E1E6",
"-X c #DCE1E4",
";X c #D3E5EA",
":X c #DBE5EA",
">X c #D3EAEE",
",X c #DBEBEE",
"<X c #C5EDF0",
"1X c #CCEEF1",
"2X c #D3EEF1",
"3X c #DBEEF0",
"4X c #D5F0F3",
"5X c #DCF1F3",
"6X c #E3E4E5",
"7X c #E3E6E9",
"8X c #E4EAEC",
"9X c #EBECED",
"0X c #E4EDF0",
"qX c #EBEEF1",
"wX c #F0EFF0",
"eX c #E4F2F3",
"rX c #ECF3F4",
"tX c #F3F4F4",
"yX c #F5F7F8",
"uX c #F7F8F8",
"iX c #F9F9FA",
/* pixels */
"L.L.L.L.D.D.V.N.z.l.l.l.p.d.d.p.l.l.l.l.l.l.l.l.l.l.l.l.l.l.l.l.j.d.d.d.d.d.d.j.c.c.c.c.m.m.b.b.b.b.n.n.n.n.n.G.G.D.D.D.D.D.D.D.D.D.D.D.D.D.D.D.V.V.V.V.V.V.C.C.",
"L.L.L.J.D.V.V.N.z.l.l.p.d.p.p.p.p.l.h.h.l.l.l.l.l.l.l.l.l.l.l.l.d.d.d.d.d.d.d.j.j.c.c.c.c.m.b.b.b.b.b.n.n.G.n.G.G.D.D.D.D.D.D.D.D.D.D.D.D.D.D.D.V.V.V.V.V.V.C.C.",
"L.L.J.J.D.V.V.z.x.l.l.p.p.p.p.p.p.p.p.l.h.h.h.l.l.l.l.l.l.l.l.p.d.d.d.d.d.d.d.d.j.c.c.c.c.m.b.b.b.b.b.n.G.G.G.G.G.G.D.D.D.D.D.D.D.D.D.D.D.D.D.D.V.V.V.V.V.V.C.C.",
"J.J.J.D.V.V.N.x.l.l.p.p.p.p.p.p.p.p.p.p.p.p.p.p.h.h.l.l.l.l.d.d.d.d.d.d.d.d.d.d.d.k.c.c.v.v.b.b.b.b.b.n.G.G.G.G.G.G.G.G.G.G.G.G.D.D.D.D.D.D.D.D.V.V.V.V.V.C.C.C.",
"J.D.D.V.V.N.x.l.l.p.p.i.i.i.i.i.i.i.p.p.p.p.p.p.p.p.d.d.d.d.d.d.d.d.a.a.d.d.d.d.d.f.c.c.v.b.b.b.b.+X%X%X%X%X%XG.G.G.G.G.G.G.G.G.G.G.G.D.D.D.D.D.V.V.V.V.V.C.C.C.",
"V.V.V.V.N.x.l.l.p.p.i.u.u.u.u.u.u.u.i.i.i.i.i.i.i.i.i.i.i.i.i.i.i.i.i.i.a.a.d.d.d.f.f.v.v.v.b.+X+X+X+X%X%X%X%X%X%XG.G.G.G.G.G.G.G.G.G.G.D.D.D.D.V.V.V.V.V.C.C.C.",
"V.V.V.z.x.l.h.p.i.u.t.t.t.t.6.t.t.t.u.u.u.u.u.i.i.i.i.i.y.y.y.y.y.y.y.y.y.a.a.d.f.f.f.f.v.#X#X+X+X#X#X@X@X@X@X%X%X%X%XG.G.G.G.G.G.G.G.G.G.D.D.D.V.V.V.V.V.C.C.C.",
"x.x.x.x.l.g.p.i.u.t.t.6.:.:.:.:.6.6.6.6.7.y.u.u.u.u.u.8.8.7.7.7.7.7.7.7.7.8.a.a.s.f.f.f.oX#X#X#X#X#X#X@X@X@X@X@X@X%X%X%X%X%XG.G.G.G.G.G.G.D.D.D.V.V.V.V.V.C.C.C.",
"x.x.x.h.g.p.i.u.t.6.| | | | | | :.:.:.:.:.:.6.7.7.7.7.7.7.7.>.>.>.>.>.>.7.7.q.a.s.f.f.{.{.oXoXoX$X$X$X$X$X*X*X*X@X@X@X%X%X%X%X%X%XG.G.G.G.D.D.D.V.V.V.V.V.C.C.C.",
"h.h.g.g.p.i.u.t.6.| | | { { { { } | :.:.:.-.-.:.:.:.>.>.>.>.>.>.>.>.>.>.>.>.q.q.s.s.{.{.}.oX$X$X$X$X$X$X$X*X*X*X*X*X@X@X@X@X%X%X%X%XG.G.G.G.D.D.V.V.V.V.V.C.C.C.",
"g.g.g.i.i.u.t.6.| | { { ] ] ] ] [ { [ [ *.*.*.-.-.-.-.-.;.;.;.=.=.=.=.;.>.>.3.q.w.s.{.{.}.}.$X$XOX$X$X$X*X*X*X*X*X*X*X*X@X&X&X&X&X&X&X&XH.H.J.D.V.V.V.V.V.V.C.C.",
"g.i.i.i.u.u.6. .| { { ] Y Y Y Y Y [ [ [ [ *.*.*.*.=.=.=.=.=.=.=.=.=.=.=.=.>.3.3.w.s.].{.}.}.OXOXOX$X;X;X>X>X>X*X*X*X*X*X*X1X<X<X&X&X&X&XH.H.H.D.D.V.V.V.V.V.C.C.",
"i.i.i.u.u.6.6.| | { ] Y Y I I I Y Y T T T [ *.*.*.*.*.*.=.=.=.=.=.=.=.=.=.;.1.3.w.w.].{.}.}.}.OXOX;X;X>X>X>X>X>X>X>X*X*X1X1X1X1X<X&X&X&XG.G.D.D.D.V.V.V.V.V.C.C.",
"i.i.i.u.t.6.6.| } { ] Y F F I I I I I U T T T _ _ _ *.*.=.=.=.=.=.=.=.=.=.1.3.3.w.!.].{.}.}.}.OX;X;X;X>X>X>X>X>X>X>X>X>X1X1X1X1X<X&X&X&X%XG.G.D.D.V.V.V.V.C.C.C.",
"i.i.u.u.6.6.6.| { ] Y I F F L L L I I U U U U ! ! _ _ _ =.=.=.=.=.=.=.=.,.1.3.4.4.!.].{.}.}.}.OX;X;X;X;X>X>X>X>X>X>X>X2X2X2X1X1X1X&X&X&X%XG.G.D.D.V.V.V.V.V.C.C.",
"i.u.u.u.6.6.:.| { ] Y I F D L L L L L P P U U ! ! ! ! ` ` =.=.=.=.=.=.=.,.3.3.4.4.!.].].}.}.}.=X;X;X;X;X>X>X,X,X,X3X3X2X2X2X2X1X1X*X&X&X%XG.G.D.D.V.V.V.V.C.C.C.",
"i.u.u.u.7.6.:.| { ] I I L L L L L L L L P P P U ! ! ! ~ ~ =.=.=.=.,.,.,.1.3.4.4.w.!.!.].}.}.}.OX;X;X;X;X,X,X,X,X3X3X3X3X3X2X2X2X1X*X&X&X&XG.G.D.D.D.V.V.V.C.C.C.",
"i.u.u.u.7.6.:.:.[ [ I I L L L H H H H H H P P P Q ! ! ~ ~ =.=.,.,.,.,.3.2.2.4.4.w.!.!.].}.}.}.}.=X;X;X;X,X,X,X3X3X3X3X5X5X3X2X2X*X*X*X&X%XG.G.D.D.D.V.V.V.C.C.C.",
"i.i.i.u.7.6.:.:.[ [ U I L H H H H H H H H J J P Q ! ! ~ ~ ` ,.,.,.,.2.2.4.4.4.w.!.!.!.!.}.}.}.}.=X;X;X:X,X,X,X,X3X0XeXeX5X5X3X2X2X*X*X@X%X%XG.D.D.V.V.V.V.C.C.C.",
"i.i.i.8.7.7.:.:.*.[ U U L H H H C C C C C Z J J J Q ! ~ ~ ~ ,.,.,.2.4.4.W.!.!.!.!.!.!.!./.}.}.}.=X=X;X:X,X,X,X8X0XeXeXeXeX5X5X2X2X*X*X@X%X%XG.D.D.D.V.V.V.C.C.C.",
"i.i.i.i.7.7.:.-.*.*.U U P H H C C B B B B C C Z J Q Q ! ~ ~ ,.,.2.4.W.!.!.!.!.!.!.!.!.!././.}.}.|.=X;X;X:X,X,X8X0XeXeXeXeXeX5X5X2X2X*X&X%X%XG.D.D.V.V.V.V.C.C.C.",
"i.a.i.i.8.8.5.-.-.*.! U P J H C B B e e e e B C C J Q Q ~ ~ ,.<.4.W.!.[.[.[.[.[././././././.}.}.|.=X=X;X:X,X8X8X0XeXrXrXeXeXeX5X4X2X*X*X&X%XG.G.D.D.V.V.V.C.C.C.",
"d.d.a.a.i.8.7.>.;.*.*.! P J H C B e w w w w w e C C J Q ! ~ ,.2.W.!.[.}.|.|.|.|.}././././././.}.|.|.=X=X:X:X8X8X0XrXrXrXrXeXeX5X5X2X1X*X&X%XG.G.D.D.V.V.V.C.C.C.",
"d.d.d.a.a.q.q.7.>.;.=.! Q P H C e w 7 * * * 7 w e C C J Q ~ ,.2.!.[.|..X:X:X-X|.|._.~.~.~.~././.|.|.|.=X:X:X8X8X9XrXrXrXrXrXeXeX5X4X2X1X&X&X%XG.D.D.V.V.V.C.C.C.",
"d.d.d.d.d.e.q.q.3.1.=.o.! Q J C w 7 & = = = & * 7 e C Z Q ~ ,.4.!.|..X:X7X7X:X-X X_._.~.~.~.~././.|.|.=X-X:X7X8X9XrXrXrXrXrXrXeX5X4X2X1X1X&X%XG.D.D.V.V.C.C.C.C.",
"j.d.d.d.d.d.e.q.3.1.,.o.~ Q J B w * = $ $ $ = & * w V Z P ~ ,.4.[..X:X0X0X0X8X7X-X|._.~.~.~.~.~./._.|.|.-X-X7X8X9XrXrXtXtXrXrXeX5X5X4X1X1X<X&XG.D.D.V.V.C.C.C.C.",
"k.k.d.d.d.d.e.e.q.3.,.,.~ Q J t w & $ # @ @ $ = & 7 e C P ~ ,.W.}.:X0XqXrXrXqX8X6X X_.).~.Q.~.~.~._._.|. X-X7X8X9XqXtXtXtXrXrXeXeX5X4X1X1X<X<X%XG.D.V.V.C.C.C.C.",
"k.d.d.d.d.d.e.e.q.3.1.,.~ Q Z e 7 & $ @   @ # $ & 7 e C P ~ ,.!.|.:XqXrXtXtXrX9X6X X_.).Q.Q.Q.~.~.)._.|.|.-X6X8X9XqXtXtXtXtXrXeXeX5X4X2X1X1X<X%XG.D.V.V.C.C.C.C.",
"d.d.d.d.d.e.e.q.3.1.,.o.~ Q Z e 7 & $ @     $ $ & w e Z Q ` 2.].|.8XrXyXyXyXtX9X7X-X`.).Q.Q.Q.Q.~.)._._.|. X-X7X9XrXtXtXtXtXrXrXeX5X4X4X1X1X<X%XG.D.V.V.C.C.C.C.",
"a.a.a.e.q.q.q.3.1.,.=.~ ! J Z e 7 & $ $ $ $ $ & 7 w C J ! ,.4.[.:X0XrXyXiXuXtX9X8X-X`.).(.Q.Q.Q.Q.~.)._._. X-X7X9XqXtXtXtXrXrXeXeX5X4X4X1X1X<X%XG.D.V.V.C.C.C.C.",
"8.8.8.8.7.7.>.;.=.=.~ ! Q J s e w 5 & = = = & 5 q s Z Q ~ ,.W.}.:X0XtXuXiXiXyX9X8X-X`.(.Q.Q.Q.Q.Q.Q.)._._. X-X7X8XqXrXtXtXrXrXeXeX5X4X4X1X1X<X%XG.D.V.V.C.C.x.x.",
"7.7.5.5.:.-.-.*.X.! Q J J Z s e q 5 5 5 5 5 q e s Z Q ~ ,.2.!.|.7XqXtXiXiXiXyX9X8X-X`.(.Q.Q.Q.Q.Q.Q.~.)._.|.-X6X8X9XrXrXrXrXrXeXeX5X4X4X1X1X<X%XG.D.V.V.C.C.x.h.",
":.:.:.:.:.*.[ U U P J Z C s a e q q q q q e s d J R ~ $.<.W.}.-X8XrXyXiXiXiXtX9X7X-X_.(.Q.Q.Q.Q.Q.Q.Q.)._._.-X-X7X9XrXrXrXrXrXeX5X5X4X2X1X1X<X&XG.D.V.V.C.C.x.h.",
"| | | [ [ [ U I L H C s a a a e q a a a s d d R ^ ~ $.<.R.!.|.-X8XrXyXiXiXuXtX9X7X-X_.(.Q.Q.E.E.Q.Q.Q.~.)._. X-X7X8XrXrXrXrXeXeX5X5X4X1X1X<X<X&XG.D.V.V.C.C.x.h.",
"{ { { [ ] I I L S B t e q q q q a a s d d x ^ W ) &.<.R.Q._. X7XqXtXyXiXiXyXtX9X6X X'.(.Q.E.E.E.E.Q.Q.~.~._.|.-X:X8X8XeXeXeXeX5X5X4X4X1X1X<X<XG.D.D.V.V.C.C.C.x.",
"{ ] ] ] I I D S B r w w 5 6 q q u f d k x b W ) %.%.R.E.~._.-X7XqXtXyXiXiXyXtX9X6X X'.(.Q.E.E.E.E.Q.Q.Q.~._.|.-X:X7X8XeXeXeXeX5X5X4X4X1X1X<X<XG.D.D.V.V.C.C.C.C.",
"] ] ] Y I F D A N w w 5 5 5 6 q u u d k x b / / %.U.R.Q.).`.-X8XqXtXuXiXiXyXtX9X6X X'.(.Q.E.E.E.E.E.Q.Q.~./.|.=X:X:X8X8XeXeX5X5X4X4X1X1X1X<X&XG.D.D.V.V.C.C.C.C.",
"] ] ] Y I F D N N w * & = 5 5 6 q u p k x b / / #.U.R.Q.).`.6X8XqXtXuXiXiXyXtX9X6X X'.(.Q.E.E.E.E.E.Q.Q.~.~._.|.-X:X,X,X3X5X5X5X2X2X1X1X<X<X&XG.D.D.V.V.C.C.C.C.",
"{ { ] ] Y F D N N - & = = = < 5 6 u i p k z n / #.U.Y.E.(.`.-X8X9XtXuXiXiXyXtX9X6X-X`.(.(.Q.E.E.E.E.Q.Q.Q.~./.|.=X:X:X,X,X,X2X2X2X1X1X<X<X<XH.G.D.D.V.V.C.C.C.C.",
"{ { { ] ] F D N N - & % $ o O < 1 1 u i j l c m ( #.Y.E.(.'.-X7X9XtXyXiXiXuXtX9X6X6X`.'.(.Q.E.E.E.E.E.Q.Q.~./.}.|.=X;X;X>X>X>X>X*X*X*X&X&X&XG.G.D.V.V.V.C.C.C.C.",
"| | { { ] F D A : - % % + X o o < 1 9 9 i j z c m ( U.Y.Q.'. X6X9XtXyXiXiXuXtX9X9X6X`.'.(.Q.E.E.E.E.E.Q.Q.~././.}.=X=X;X;X>X*X*X*X*X@X%X%XG.G.D.D.V.V.V.C.C.C.C.",
"| | | { { Y D A : - % % + + X o 2 < 1 3 0 i l z n / #.Y.E.(.`.6X9XtXyXiXiXuXtX9X9X6X`.'.(.Q.Q.E.E.E.R.R.E.Q././.}.}.OXOX$X$X$X*X@X@X%X%XG.G.G.D.V.V.V.V.V.C.C.C.",
"| | | } { ] F A N - % % + X X . . > , 1 3 0 j l c m ( U.Y.(.`.6X9XtXyXiXiXuXtX9X9X6X`.'.(.Q.Q.E.E.E.R.R.R.!.!.!.}.}.}.OX$X$X#X#X@X%X%XG.G.G.D.D.V.V.V.V.V.C.C.C.",
" .| | | { ] F G N - % % + X X . . > > , 3 9 0 j z n / #.Y.Q.'.-X8XqXyXiXiXuXtX9X6X6X`.'.(.Q.E.E.E.R.R.R.R.R.!.!.!.{.{.}.oXoX#X+X+X%XG.G.G.D.D.D.V.V.V.V.V.C.C.C.",
" . .| | { ] F G N - ; % + X X . . > > , 4 3 0 j l c m ( U.E.(. X6X9XtXyXiXyXtX9X6X6X`.'.(.E.E.E.R.R.R.R.R.R.!.!.!.].{.}.}.oX#X+Xb.b.n.D.D.D.V.V.V.V.V.V.V.C.C.C.",
" . .| | { ] F D N - - % + X o o . > > , 4 3 0 0 j z n / #.Y.(.`.6X9XtXyXyXyXtX9X6X`.`.(.Q.T.T.Y.Y.R.R.R.<.2.4.!.!.!.{.{.{.{.v.v.b.b.m.D.D.V.V.V.V.V.V.V.C.C.C.C.",
"| | | } { ] F D A - - & = O o o 2 > , , 3 3 0 0 j z c m ( U.Q.'.6X9XtXyXyXtXwX9X6X`.'.(.T.T.Y.U.U.U.%.%.<.<.2.4.w.w.s.f.f.f.k.v.c.m.m.m.V.V.V.V.V.V.V.V.C.C.C.C.",
"| | } } ] ] F D A r - ; & O O < < < , 1 3 9 0 0 j j z n / I.E.'. X7X9XtXtXtX9X7X6X`.(.T.T.Y.U.I.%.%.%.%.%.%.<.2.4.w.w.s.f.f.f.c.c.m.m.N.V.V.V.V.V.V.C.C.C.C.C.C.",
"| } } } ] ' I D S r w y y 5 < < < 1 1 3 9 9 0 0 0 j l c m #.Y.(.`.6X9XtXtXtX9X6XXX'.(.T.Y.I.I.#.( ( ( ) &.$.,.1.2.0.w.s.f.f.f.c.c.m.z.N.V.V.V.V.C.C.C.C.C.C.C.C.",
"} } } { ] ' I L S B t w y y q q 1 8 9 9 9 9 0 0 0 j j z n ( U.Q.`.6X9X9XwX9X9X6X`.'.T.Y.I.I.( ( ( / / / ) &.$.,.1.3.q.s.s.f.d.c.c.z.z.N.V.V.V.V.C.C.C.C.C.C.C.C.",
"} } { ] ] ' I L H S t t e q q q u u u u 9 0 0 0 0 0 j l c m %.E.'. X7X9X9X9X6XXX`.(.T.I.#.( ( m / / / / ) ) $.,.1.3.q.a.d.d.d.c.c.z.z.N.V.V.V.V.C.C.C.C.C.C.C.C.",
"} } } { [ ' I I L H h s f f f f u u u i i i i 0 0 0 j j z n ( Y.(.`.6X7X9X7X6X`.'.T.Y.I.( M m m m m / / / ) &.$.1.3.q.a.a.d.d.d.c.z.z.N.V.V.V.C.C.C.C.C.C.C.C.C.",
"} } } } [ [ ' U U J J h s s s p p p p p p p i 0 0 0 i j l c / U.E.'. X6X6X6X`.'.(.T.I.( M m m n n n / / / ) &.$.1.3.q.a.a.d.d.d.c.z.z.N.V.V.V.C.C.C.C.C.C.C.C.C.",
"| | | | | [ [ ' U P J J g g d d d p p p p p p i 0 0 0 j l z / %.Y.Q._.`. X`.'.(.T.U.#.M m n n n n n / / ) ) &.$.1.3.q.a.a.d.f.d.c.c.z.z.V.V.V.V.C.C.C.C.C.C.C.C.",
"6.6.6.:.:.:.:.*.X.E E E R R g g g d d p p p p p 0 0 0 p j z b / %.R.Q.).).(.Q.T.U.#./ m n c c c b b W ) ) &.$.,.1.3.w.w.s.f.f.f.c.c.z.z.N.V.V.V.V.C.C.C.C.C.C.C.",
"u.7.7.7.7.5.-.;.=.X.X.! E E E x x g g d p p p p i i i p j l z / #.%.R.R.E.R.Y.%.#./ m c c z c b b W W ) &.&.$.1.3.4.w.w.s.f.f.f.k.c.z.z.z.V.V.V.V.V.C.C.C.C.C.C.",
"i.i.i.i.8.8.7.>.>.;.+.o.o.W E E x x x g g p p p p p i p p j x b / &.%.%.%.%.%./ / b c z z z c b b W ) &.$.$.1.<.2.0.w.w.f.f.f.f.k.c.m.m.Z.V.V.V.V.V.V.C.C.C.C.C.",
"d.d.d.d.d.a.q.q.q.1.,.+.o.@.W W E E x g g g p p p p p p p p x x b W ) / &./ / W b c x k x x x b W W @.$.$.1.2.2.0.w.w.w.^.{.f.k.k.v.m.m.m.D.V.V.V.V.V.V.V.C.C.C.",
"m.c.c.c.j.d.d.e.9.q.3.1.1.+.@.@.W E E x g g g p p p p p p p x x x b W W W W b b x x x x x x x W W @.$.$.1.1.2.0.w.w.!.!.^.{.{.oXk.k.b.m.m.D.V.V.V.V.V.V.V.C.C.C.",
"m.m.m.m.c.k.k.f.r.w.q.9.1.1.$.o.@.E E E v g g g g g p p p p g x x x x v v x x x x x g g x x x E @.o.$.,.1.2.0.w.w.!.!.^.^.{.{.oXk.k.b.m.m.D.D.V.V.V.V.V.V.V.C.C.",
"G.G.G.n.b.b.k.k.f.r.w.0.9.1.,.+.o.o...E E K K g g g g g g g g g x x x v v x x x g g g g x v E E o.+.,.1.9.0.w.w.w.!.^.^.{.{.{.oXk.b.b.m.m.m.V.V.V.V.V.V.V.C.C.C.",
"P.G.G.G.G.b.b.k.k.f.r.r.w.9.9.;.+.+.X.X.....E K K K g g g g K K E E E E E E E E K g g K E E ..X.+.;.1.9.9.w.w.r.r.^.^.{.{.{.{.oXk.b.b.m.m.m.V.V.V.V.V.C.C.C.C.C.",
"P.P.G.G.G.b.b.v.k.k.f.r.r.9.q.9.>.;.;.O.X.X.X.......E E E E E E E ..........E E E E E E ..X.X.+.;.>.q.9.e.r.r.r.r.f.f.{.{.{.k.k.k.b.m.m.m.z.V.V.V.V.C.C.C.C.C.C.",
"P.P.P.G.D.D.m.m.c.k.k.f.r.e.e.q.7.5.5.-.-.-.-.-.O.X.X.X.X.X.X.X.X.X.X.X.X.X.X.X.X.X.X.X.O.;.;.-.5.q.q.e.e.f.f.f.f.f.f.f.f.k.k.k.m.m.m.m.z.V.V.V.V.V.C.C.C.C.C.C.",
"D.D.D.D.D.D.m.m.m.k.k.k.d.d.d.e.e.8.7.7.5.5.5.5.-.-.-.-.-.-.-.-.-.-.-.-.-.-.-.-.-.-.-.-.5.5.5.7.8.e.a.d.d.d.f.f.f.f.k.k.k.k.k.c.m.m.m.Z.V.V.V.V.V.V.C.C.C.C.C.C.",
"D.D.D.D.D.D.D.z.z.z.z.j.j.j.j.d.d.d.8.8.8.8.7.7.7.7.7.7.7.7.7.7.7.7.7.7.7.7.7.7.7.7.7.7.8.8.8.i.d.d.d.j.j.j.j.j.k.k.k.k.k.k.c.m.m.z.z.V.V.V.V.V.V.C.C.C.C.C.C.C.",
"V.V.V.V.V.V.V.V.z.z.z.z.z.j.j.j.j.j.p.i.i.i.i.i.i.i.i.i.i.i.i.i.i.i.i.i.i.i.i.i.i.i.i.i.i.d.j.j.j.j.j.z.z.z.z.z.c.c.c.c.c.z.z.z.z.z.C.V.V.V.V.V.C.C.C.C.C.C.C.C.",
"V.V.V.V.V.V.V.V.V.V.z.z.z.z.x.x.x.l.j.j.g.g.g.g.g.g.g.g.g.g.g.g.g.g.j.l.l.l.l.l.l.l.l.l.x.x.x.x.x.x.z.z.z.z.z.z.z.z.z.z.z.z.z.z.z.z.V.V.V.V.V.C.C.C.C.C.C.C.C.C.",
"V.V.V.V.V.V.V.V.V.V.V.C.C.C.x.x.x.x.x.x.x.x.x.x.x.x.x.x.x.x.x.x.x.x.x.x.x.x.x.x.x.x.x.x.x.x.C.C.C.C.V.V.V.C.z.z.z.z.z.z.z.z.z.z.z.N.V.V.C.C.C.C.C.C.C.C.C.C.C.C.",
"C.C.C.C.C.C.C.C.C.C.C.C.C.C.C.C.C.x.x.x.C.C.x.x.C.C.C.C.x.x.x.x.C.C.C.C.C.C.C.C.V.V.C.V.C.C.V.V.V.V.C.C.V.V.V.z.z.z.x.x.x.x.x.x.C.C.C.C.C.C.C.C.C.C.C.C.C.C.C.C.",
"C.C.C.C.C.C.C.C.C.C.C.C.C.C.C.C.C.C.C.C.C.C.C.C.C.C.C.C.C.C.C.C.C.C.C.C.C.C.C.C.V.V.V.V.C.C.C.C.V.C.C.C.C.C.C.C.C.C.x.x.x.x.x.x.C.C.C.C.C.C.C.C.C.C.C.C.C.C.C.C.",
"C.C.C.C.C.C.C.C.C.C.C.C.C.C.C.C.C.C.C.C.C.C.C.C.C.C.C.C.C.C.C.C.C.C.C.C.C.C.C.C.V.V.V.V.C.C.C.C.C.C.C.C.C.C.C.C.C.C.C.x.x.x.x.C.C.C.C.C.C.C.C.C.C.C.C.C.C.C.C.C.",
"C.C.C.C.C.C.C.C.C.C.C.C.C.C.C.C.C.C.C.C.C.C.C.C.C.C.C.C.C.C.C.C.C.C.C.C.C.C.C.C.C.C.C.C.C.C.C.C.C.C.C.C.C.C.C.C.C.C.C.C.x.x.x.C.C.C.C.C.C.C.C.C.C.C.C.C.C.C.C.C.",
"C.C.C.C.C.C.C.C.C.C.C.C.C.C.C.C.C.C.C.C.C.C.C.C.C.C.C.C.C.C.C.C.C.C.C.C.C.C.C.C.C.C.C.C.C.C.C.C.C.C.C.C.C.C.C.C.C.C.C.C.x.x.C.C.C.C.C.C.C.C.C.C.C.C.C.C.C.C.C.C.",
"C.C.C.C.C.C.C.C.C.C.C.C.C.C.C.C.C.C.C.C.C.C.C.C.C.C.C.C.C.C.C.C.C.C.C.C.C.C.C.C.C.C.C.C.C.C.C.C.C.C.C.C.C.C.C.C.C.C.C.C.x.C.C.C.C.C.C.C.C.C.C.C.C.C.C.C.C.C.C.C.",
"C.C.C.C.C.C.C.x.x.x.x.x.x.x.x.C.x.x.C.C.C.C.C.C.C.C.C.C.C.C.C.C.C.C.C.C.C.C.C.C.C.C.C.C.C.C.C.C.C.C.C.C.C.C.C.C.C.C.C.C.C.C.C.C.C.C.C.C.C.C.C.C.C.C.C.C.C.C.C.C.",
"C.C.C.C.C.C.x.x.x.x.x.x.x.x.x.x.x.C.C.C.C.C.C.C.C.C.C.C.C.C.C.C.C.C.C.C.C.C.C.C.C.C.C.C.C.C.C.C.C.C.C.C.C.C.C.C.C.C.C.C.C.C.C.C.C.C.C.C.C.C.C.C.C.C.C.C.C.C.C.C.",
"C.C.C.C.C.C.x.x.x.x.x.x.x.x.x.x.x.C.C.C.C.C.C.C.C.C.C.C.C.C.C.C.C.C.C.C.C.C.C.C.C.C.C.C.C.C.C.C.C.C.C.C.C.C.C.C.C.C.C.C.C.C.C.C.C.C.C.C.C.C.C.C.C.C.C.C.C.C.C.C.",
"C.C.C.C.C.x.x.x.x.x.x.x.x.x.x.x.x.C.C.C.C.C.C.C.C.C.C.C.C.C.C.C.C.C.C.C.C.C.C.C.C.C.C.C.C.C.C.C.C.C.C.C.C.C.C.C.C.C.C.C.C.C.C.C.C.C.C.C.C.C.C.C.C.C.C.C.C.C.C.C.",
"C.C.C.C.C.x.x.x.x.x.x.x.x.x.x.x.x.C.C.C.C.C.C.C.C.C.C.C.C.C.C.C.C.C.C.C.C.C.C.C.C.C.C.C.C.C.C.C.C.C.C.C.C.C.C.C.C.C.C.C.C.C.C.C.C.C.C.C.C.C.C.C.C.C.C.C.C.C.C.C."
};
