/* XPM */
static char *auxa5_rghn6[] = {
/* columns rows colors chars-per-pixel */
"80 80 226 2 ",
"   c #95685E",
".  c #8E6B66",
"X  c #956B64",
"o  c #99736A",
"O  c #8C7977",
"+  c #987B76",
"@  c #8D716B",
"#  c #A17D6E",
"$  c #7C8B7D",
"%  c #778577",
"&  c #AA815E",
"*  c #9C886C",
"=  c #958A6F",
"-  c #8D8B7B",
";  c #938C74",
":  c #9C8B73",
">  c #9A8879",
",  c #8D927D",
"<  c #98927B",
"1  c #A68364",
"2  c #AA8362",
"3  c #A3856A",
"4  c #A4896D",
"5  c #AA896B",
"6  c #B18C6C",
"7  c #A38B73",
"8  c #A38C7A",
"9  c #A88876",
"0  c #A4927B",
"q  c #AB947A",
"w  c #B39579",
"e  c #8A7F81",
"r  c #7D8D8B",
"t  c #7D9387",
"y  c #7E8D91",
"u  c #7C9295",
"i  c #7D9A9E",
"p  c #7C9698",
"a  c #7E9DA0",
"s  c #848D82",
"d  c #838B8C",
"f  c #8A8988",
"g  c #998986",
"h  c #849184",
"j  c #8B9283",
"k  c #8B958B",
"l  c #87998B",
"z  c #9D9483",
"x  c #9C958C",
"c  c #9C9A8C",
"v  c #949888",
"b  c #888E91",
"n  c #869997",
"m  c #9C9495",
"M  c #959A94",
"N  c #9B9B95",
"B  c #9B9C99",
"V  c #959594",
"C  c #978F91",
"Z  c #A29383",
"A  c #A59985",
"S  c #A49D8C",
"D  c #A99787",
"F  c #B39D86",
"G  c #A29B93",
"H  c #A29B9B",
"J  c #A19595",
"K  c #A68E82",
"L  c #89A399",
"P  c #93A295",
"I  c #9BAA9D",
"U  c #9BA399",
"Y  c #96A18F",
"T  c #A9A28D",
"R  c #B5A38C",
"E  c #A4A294",
"W  c #ACA394",
"Q  c #A3A59B",
"!  c #ABA69A",
"~  c #ACAA9D",
"^  c #A5A99E",
"/  c #B2A593",
"(  c #B3AB9D",
")  c #B7AA97",
"_  c #BBB29E",
"`  c #839EA1",
"'  c #85A2A4",
"]  c #8BA3A5",
"[  c #8BA6A9",
"{  c #8CAAA8",
"}  c #9BA4A1",
"|  c #93AAAC",
" . c #9CACAB",
".. c #97A9A5",
"X. c #8DB1AC",
"o. c #9EB5AC",
"O. c #97B3AA",
"+. c #95AEB2",
"@. c #9AAEB0",
"#. c #9BB2B4",
"$. c #9BB5B9",
"%. c #94BBBD",
"&. c #9CBABD",
"*. c #98B8B4",
"=. c #8FB5B3",
"-. c #A3ACA4",
";. c #ACAEA3",
":. c #A2AFAA",
">. c #B4AEA2",
",. c #ACB0A6",
"<. c #A4B3AD",
"1. c #ACB4AC",
"2. c #A7B3A9",
"3. c #B4B1A5",
"4. c #BBB4A4",
"5. c #B3B3AB",
"6. c #BAB5A9",
"7. c #BDBBAD",
"8. c #B6B9AC",
"9. c #A3B5B3",
"0. c #ACB6B1",
"q. c #A4BBB5",
"w. c #ADBAB5",
"e. c #A3BBBC",
"r. c #ABBDBB",
"t. c #A0B7B9",
"y. c #B3BBB4",
"u. c #BCBDB3",
"i. c #B1B7B2",
"p. c #C0BFB2",
"a. c #C0BCAD",
"s. c #9DC2BD",
"d. c #A5C1BC",
"f. c #ADC2BD",
"g. c #BCC3B5",
"h. c #B2C2BC",
"j. c #BCC7BB",
"k. c #C0C8BB",
"l. c #93BDC1",
"z. c #9BBDC2",
"x. c #A2BEC2",
"c. c #A9BFC2",
"v. c #95C2C4",
"b. c #9CC3C5",
"n. c #9CC6CB",
"m. c #9BCACD",
"M. c #97C6C9",
"N. c #9ECDD1",
"B. c #9FD1D5",
"V. c #A4C4C4",
"C. c #ABC4C3",
"Z. c #A4C9C5",
"A. c #ABC9C5",
"S. c #A4C6C9",
"D. c #A9C6CA",
"F. c #A5CBCC",
"G. c #ABCBCB",
"H. c #BCCCC3",
"J. c #B3CACB",
"K. c #B4C9C7",
"L. c #ACD1CE",
"P. c #A6D1CF",
"I. c #BDD4CD",
"U. c #BED1C6",
"Y. c #A5CED2",
"T. c #ABCDD1",
"R. c #B7CDD3",
"E. c #A4D2D5",
"W. c #ACD3D4",
"Q. c #A4D5DA",
"!. c #AAD6D9",
"~. c #A5DADD",
"^. c #AADADD",
"/. c #AAD8D7",
"(. c #B1D5D5",
"). c #BCD5D4",
"_. c #BDD9D4",
"`. c #B2D5DA",
"'. c #BDD4DA",
"]. c #B2DBDC",
"[. c #BDDDDB",
"{. c #B3D8D7",
"}. c #BDE0DE",
"|. c #A6DDE3",
" X c #AADEE3",
".X c #A4DDE6",
"XX c #B2DEE2",
"oX c #BEDCE1",
"OX c #A7E0E5",
"+X c #ABE1E6",
"@X c #A7E1EA",
"#X c #ACE4EB",
"$X c #AEE8EE",
"%X c #B1E2E5",
"&X c #BCE3E4",
"*X c #B2E5E9",
"=X c #B2E6EC",
"-X c #BAE7EA",
";X c #B9E6E9",
":X c #B6E8ED",
">X c #B7E9EE",
",X c #B7E9EE",
"<X c #B7E9EE",
"1X c #B6E9EE",
"2X c #B8E9EE",
"3X c #B9E9EE",
"4X c #B8EAEF",
"5X c #B8E9ED",
"6X c #BDEAEE",
"7X c #BAE8EB",
"8X c #B5EAF0",
"9X c #B8EBF0",
"0X c #BAEBF0",
"qX c #BAEDF2",
"wX c #BDEEF2",
"eX c #BBEFF4",
"rX c #B9EDF3",
"tX c #BEF1F5",
"yX c #C1CEC5",
"uX c #C1D3CB",
"iX c #C1DAD5",
"pX c #C0DCDC",
"aX c #C2D7D1",
"sX c #C0E0DE",
"dX c #C1DDE2",
"fX c #C1E4E9",
/* pixels */
"2X2X2X2X2X2X2X2X2X2X2X2X2X2X2X2X2X2X2X2X2X2X2X2X>X>X>X>X>X>X>X>X>X>X>X>X>X>X>X>X>X>X>X>X>X>X>X>X>X>X>X>X>X>X>X>X>X>X>X>X>X2X9X9XwXtXtXtXtXtXtXeXwX9X9X9X2X2X2X2X",
"2X2X2X2X2X2X2X2X2X2X2X2X2X2X2X2X2X2X2X2X2X2X2X2X>X>X>X>X>X>X>X>X>X>X>X>X>X>X>X>X>X>X>X>X>X>X>X>X>X>X>X>X>X>X>X>X>X>X>X>X>X2X9X9XwXtXtXtXtXtXtXwXwX9X9X2X2X2X2X2X",
"2X2X2X2X2X2X2X2X2X2X2X2X2X2X2X2X2X2X2X2X2X2X2X2X>X>X>X>X>X>X>X>X>X>X>X>X>X>X>X>X>X>X>X>X>X>X>X>X>X>X>X>X>X>X>X>X>X>X>X>X2X2X9X9X9XwXwXtXtXtXwXwX9X9X9X2X2X2X2X2X",
"2X2X2X2X2X2X2X2X2X2X2X2X2X2X2X2X2X2X2X2X2X2X2X2X>X>X>X>X>X>X>X>X>X>X>X>X>X>X>X>X>X>X>X>X>X>X>X>X>X>X>X>X2X>X>X>X>X>X>X>X2X2X9X9X9X9X9XwX9X9X9X9X9X2X2X2X2X>X>X>X",
"2X2X2X2X2X2X2X2X2X2X2X2X2X2X2X2X2X2X2X2X2X2X2X2X2X>X>X>X>X>X>X>X>X>X>X>X>X>X>X>X>X>X2X2X2X>X>X>X>X>X2X2X2X2X2X2X2X>X>X2X2X2X2X2X2X2X4X4X2X2X2X2X2X2X>X>X>X>X>X>X",
"2X2X2X2X2X2X2X2X2X2X2X2X2X2X2X2X2X2X2X2X2X2X2X2X>X>X>X>X>X>X>X>X>X>X>X>X>X>X>X>X9X9X9X9X9X9X9X9X2X2X2X2X9X9X2X2X2X2X2X2X2X2X>X>X>X>X>X>X:X:X>X>X>X>X>X>X>X>X>X>X",
"2X2X2X2X2X2X2X2X2X2X2X2X2X2X2X2X2X2X2X2X2X2X2X2X>X>X>X>X>X>X>X>X>X>X>X>X>X>X9X9X9X9X9X9X9X9X9X9X9X9X9X9X9X9X9X9X9X9X9X2X2X>X>X>X:X*X*X%X%X%X*X*X*X:X:X:X:X:X:X:X",
"2X2X2X2X2X2X2X2X2X2X2X2X2X2X2X2X2X2X2X2X>X>X2X2X2X>X>X>X>X>X>X>X>X>X>X>X>X8X9X9X9X9X9X9XeXeX9X9X9X9X9X9X9X9X9X9X9X9X9X9X2X>X>X*X%X+X+X X X X+X+X%X*X*X*X*X*X*X:X",
">X2X2X2X>X>X>X>X>X>X>X>X2X>X>X>X>X>X>X>X>X>X2X2X>X2X2X2X2X>X>X>X>X>X>X>X9X9X9X9X9X9XeXeXeXeXeX9X9X9X9X9X9X9XwXwX9X9X9X9X2X>X:X%X+X X^.^.~.~.^. X X+X%X*X*X*X*X:X",
">X>X>X>X>X>X>X>X>X>X>X>X>X>X>X>X>X>X>X>X>X>X2X2X2X2X2X2X2X2X>X>X>X>X>X>X9X9X9X9X9X9XeXeXtXtXtXeXeX9X9X9XwXwXwXwXwXwXwX9X2X>X*X+X X~.Q.Q.E.Q.Q.~.~. X+X+X*X*X*X*X",
">X>X>X>X>X>X>X>X>X>X>X>X>X>X>X>X>X>X>X>X>X>X>X2X2X2X2X2X2X2X2X2X2X2X2X2X2X2X9X9X9X9X9XeXwXwXwXwXwXwXwXwXwXwXwXwXwXwXwX9X2X:X%X X^.Q.E.N.N.N.E.Q.~.~. X+X+X#X*X*X",
">X>X>X>X>X>X>X>X>X>X>X>X>X>X>X>X>X>X>X>X>X>X>X2X2X2X2X2X2X2X2X2X2X2X2X2X2X2X2X2X9X9XwXwXwXwXwXwXwXwXwXwXwXwXwXwXwXwXwXwX2X:X%X^.Q.E.N.m.m.m.N.E.Q.~. X+X+X+X#X*X",
">X>X>X>X>X>X>X>X>X>X>X>X>X>X>X>X>X>X>X>X>X>X>X>X2X2X2X2X2X2X2X2X2X2X;X;X-X-X-X-X7X7X7X7X7X6X6X6X6X6X6X6X6XwXwXwXwXwXwX6X2X%XXX^.E.N.m.M.M.m.m.N.E.~.^. X+X+X+X%X",
">X>X>X>X>X>X>X>X>X>X>X>X>X>X>X>X>X>X>X>X>X>X>X>X2X2X2X2X-X;X;X;X;X;X;X;X;X;X&X&X&X&X&X&X&X&X&X&X;X7X7X7X6X6X6X6XfX6X6X6X;X%XXX/.E.m.M.v.v.M.m.m.E.Q.^. X+X+X%X%X",
">X>X>X>X>X>X>X>X>X>X>X>X>X>X>X>X>X>X>X>X>X>X>X>X2X2X-X;X;X;X;X;X;X&X&X&X&X&X&X}.}.}.[.[.[.[.}.}.&X&X&X&X;X;XfXfXfXfXfX;X;XXX].!.Y.M.v.v.v.v.M.m.N.Q.^.^. X+X%X%X",
">X>X>X>X>X>X>X>X>X>X>X>X>X>X>X>X>X>X>X>X>X>X>X>X-X;X;X;X;X;X;X;X&X&X&X&X&X}.[.[._._._.I.I._._._.[.[.[.&X&X&XfXfXfXfXfX&X&XXX`.W.F.M.v.l.l.v.v.m.N.E.^.^. X%X%X%X",
">X>X>X>X>X>X>X>X>X>X>X>X>X>X>X>X>X>X>X>X>X>X>X2X:X:X;X;X;X;X;X&X&X&XsXsXpXiXiXaXI.U.U.H.H.U.I.I.I._.[.[.[.oXdXfXfXfXfXdXoX].`.T.F.b.l.l.%.l.v.M.m.E./.^.^.XX%X%X",
">X>X>X>X>X>X>X>X>X>X>X>X>X>X>X>X>X>X>X>X>X>X>X:X:X;X;X;X;X&X&X&X&XsXpXpXiXiXaXyXH.j.j.g.g.j.j.H.H.I.)._.[.[.pXdXdXdXdXdXoX`.(.T.S.b.l.%.%.l.v.M.m.E./.^.].].%X%X",
">X>X>X>X>X>X>X>X>X>X>X>X>X>X>X>X>X>X>X>X>X>X>X:X;X;X;X;X&X&X&X}.pXpXpXiXaXuXyXk.g.g.7.7.7.7.g.g.j.H.U.)._._.'.pXpXpXpX'.'.`.T.D.S.z.l.%.%.l.v.M.F.E./.^.`.].].].",
">X>X>X>X>X>X>X>X>X>X>X>X>X>X>X>X>X>X>X>X>X>X:X:X:X;X;X;X&X&X}.[.pXiXiXaXuXyXk.k.g.7.4._ _ 4.6.7.g.j.H.U.R.).)._.'.'.'.'.'.R.T.D.V.z.%.%.%.%.v.b.S.Y.W./.`.`.].].",
">X>X>X>X>X>X>X>X>X>X>X>X>X>X>X>X>X>X>X>X>X:X:X:X:X;X;X&X&X}.}.[.iXiXaXuXyXk.k.7.7._ ) ) ) ) ( 3.8.y.h.K.J.J.R.R.R.R.R.R.R.J.D.D.x.z.%.%.%.l.v.b.S.F.W./.{.`.`.`.",
">X>X>X>X>X>X>X>X>X>X>X>X>X>X>X>X>X>X>X>X>X:X:X:X:X:X;X;X&X}.[.[._.aXaXyXyXj.u.4._ ) R R F R / ( 3.5.w.h.C.K.J.J.J.J.J.J.J.D.D.V.x.z.z.%.l.z.b.S.S.F.W.W./.(.{.{.",
">X>X>X>X>X>X>X>X>X>X>X>X>X>X>X>X>X>X>X>X>X>X:X:X:X:X;X;X&X&X[.[._.I.I.H.j.u.6._ / F F q q D D W ~ ,.0.r.r.C.C.C.C.C.C.c.c.c.c.x.x.z.z.z.z.b.b.S.F.G.L.W.W.W.W.(.",
">X>X>X>X>X>X>X>X>X>X>X>X>X>X>X>X>X>X>X:X:X>X:X:X:X-X;X;X;X&X[._.).I.H.j.g.8.>./ F K 9 9 9 8 Z S G -.:.9.t.e.e.e.e.e.e.e.e.e.x.x.x.z.z.b.b.V.S.F.F.G.G.L.L.L.L.L.",
">X>X>X>X>X>X>X>X>X>X>X>X>X>X>X>X>X:X:X:X:X>X>X>X:X:X-X;X;X&X[._.).U.H.g.8.3.( F K 9 3 # # # > z c U .. .#.$.$.$.$.#.#.#.#.$.$.&.z.x.V.S.S.F.F.F.F.G.G.G.G.G.L.L.",
">X>X>X>X>X>X>X>X>X>X>X>X>X>X>X>X:X:X:X:X:X:X>X>X:X:X:X;X;X}.[.).I.K.h.y.5.( W D 9 # # o o o + > g M } | | +.+.+.+.| | | +.+.#.$.&.x.V.S.D.D.D.G.G.G.G.G.G.G.G.G.",
">X>X>X>X>X>X>X>X>X>X>X>X>X>X>X>X:X:X:X:X:X:X:X:X:X:X:X;X%X].{.(.J.K.h.i.;.! S K 9 # o X   X o + f k n ] [ [ [ [ [ [ ] [ [ | +.$.&.x.S.D.G.G.G.G.G.G.G.A.A.A.A.A.",
">X>X>X>X>X>X>X>X>X>X>X>X>X>X>X>X:X:X:X:X:X:X:X:X%X%X%X%X].{.(.J.K.h.w.1.;.W D 8 # o X     X @ O f b n ` ' ' ' ' ' ' ` ` ] [ | #.&.x.C.A.G.G.G.G.G.A.A.A.A.Z.Z.Z.",
">X>X>X>X>X>X>X>X>X>X>X>X>X>X>X>X:X:X:X:X*X*X%X%X%X+X^.^./.W.G.A.f.w.1.,.^ G Z 8 + o X     . @ O - d b n ` ' ' ' ` ` ` ` ' ] | #.$.e.C.A.J.J.J.A.A.A.A.A.A.Z.Z.Z.",
">X>X>X>X>X>X>X>X>X>X>X>X>X>X>X>X>X:X:X:X*X%X%X^.^./.W.P.F.Z.d.d.q.<.2.-.Q G Z > + o X X X . @ O f d b n i a a a a i n ` ' ] | @.$.q.r.C.K.K.K.A.A.A.A.A.C.C.V.V.",
">X>X>X>X>X>X>X>X>X>X>X>X>X>X>X>X>X>X:X:X%X%X^./.E.F.Z.s.s.*.*.o.o.:.-.-.Q G x g > + o o @ @ O O f d d p p i i a a a ` ` ] ] |  .#.9.0.r.h.h.h.h.f.C.C.C.C.C.C.C.",
">X>X>X>X>X>X>X>X>X>X>X>X>X>X>X8X>X>X>X:X%X X/.P.Z.s.*.O.O.O.......I I U B N x g g + + + + O O e f d y u p p i i a ` ` ' ] ] |  . .2.1.0.y.y.y.h.f.f.f.C.C.C.C.A.",
">X>X>X>X>X>X>X>X>X>X>X>X>X>X8X8X8X>X>X:X%X^.E.Z.s.*.{ L L L L L M M P B N N m x g g g g g g f f f d y u u p i i a ' ' [ [ | |  .:.-.;.1.1.5.i.y.w.f.f.C.C.A.A.A.",
":X:X:X:X:X>X>X>X>X>X>X>X>X8X8X8X8X8X>X:X%X^.F.s.*.{ L l h h h h k k M M M M m m m C C C C C g f d d y y u u p i ` ' [ [ | |  . .-.-.;.~ ;.;.5.1.0.w.f.f.C.A.A.A.",
":X:X:X:X:X:X>X>X=X=X>X>X>X8X8XrXrX8X>X:X%X/.S.&.X.L l t $ $ $ $ h k k M M M N m m m J J m m C C b b d y y u p n ` [ [ | |  . .-.-.Q ! ! ! ~ ;.1.i.w.f.f.A.A.A.A.",
":X:X=X=X=X=X>X>X=X=X>X=X>X8X8XrXrXrX>X:X%X/.Z.*.{ L t $ % % % % $ s k k k M M B B H H H H m m C b d d r y u n n ] [ | +.@. . .-.Q ! W W W W ~ ,.1.w.f.f.A.A.A.A.",
"=X=X=X=X:X>X>X>X=X=X=X=X=X8X8XrXrXrX>X:X%X/.Z.*.{ L t $ % % % % $ s s k k V M N B H H H H B m V b d d d d d n n ] | +.#.#.<.:.-.Q W W S W W ~ ;.1.w.f.C.A.A.A.A.",
"=X=X=X=X:X=X=X=X=X=X=X=X=X8X8XrXrXrX8X:X%X/.S.&.X.L t t % % % % $ s s j k k V N N H H H H J m x C f f f f d k M ..| @.#.9.9.2.;.~ W W S W W ~ ;.1.0.f.C.A.A.A.A.",
"=X=X=X=X=X=X=X=X=X=X=X=X=X8X8XrXrX8X8X:X%X^.F.s.=.{ n t t $ $ $ $ s s j j k v x m G G G G J x g g g - - f j k B }  .<.9.0.0.1.;.;.! / / / / ~ ;.1.w.f.C.A.A.A.A.",
"=X=X=X=X=X=X=X=X=X=X=X=X=X=X8X8X8X8X8X:X%X^.E.b.%.X.' n p t t t h h s j j j v z z x A D D Z Z > > > > > - g x N Q -.1.w.w.i.5.5.>.( / / / ( ( ,.1.w.f.C.A.A.A.A.",
"=X=X=X=X=X=X=X=X=X=X=X=X=X=X8X8X8X8X8X>X*X XQ.m.v.%.X.{ L L n l h h j , , - - < < z Z Z Z 8 8 7 : : : : : > Z G ! ;.5.y.y.y.y.5.3.( ( ) ( ( >.1.0.r.f.C.C.D.D.D.",
"=X=X=X=X=X=X=X=X=X=X=X=X=X=X>X8X8X8X8X>X*X+X^.E.m.v.%.=.X.{ L L l l j , - ; ; ; : : 8 8 7 9 7 4 4 3 3 4 7 8 D F ! 3.8.u.u.u.u.8.6.>.( ( ( >.>.1.w.r.C.C.D.D.D.D.",
"=X=X=X=X=X=X=X=X=X=X=X=X=X=X=X8X8X8X8X>X*X+X X~.E.N.M.v.%.=.{ L L l j , - ; ; ; : : 7 7 4 3 3 3 1 1 1 3 5 9 q F ) 4.6.u.g.u.u.7.6.3.>.>.>.>.5.0.w.r.C.C.D.D.F.F.",
"=X=X=X=X=X=X=X=X=X=X=X=X=X=X=X>X>X8X8X>X=X*X+X X~.Q.N.m.v.%.=.{ L l v , , ; = = * * 3 3 3 3 3 1 1 2 2 2 5 6 w F / _ 4.7.p.p.u.7.6.6.3.>.>.5.5.0.r.f.C.D.F.F.F.Y.",
"=X=X=X=X=X=X=X=X=X=X=X=X=X=X=X=X8X8X8X>X=X*X+X+X|.~.Q.N.m.v.*.O.I P v , , ; = = * * * 3 3 3 1 & & # & 2 6 6 w F R _ 4.a.a.p.p.7.6.6.6.3.3.5.i.w.r.C.C.D.F.F.Y.Y.",
"=X=X=X=X=X=X=X=X=X=X=X=X=X=X=X=X8X8X8X8X=X=X#X+X X|.~.E.m.b.&.O...P v v , ; ; = * * 3 3 3 3 2 & & # & & 2 6 w w R ) _ 4.7.7.7.7.6.6.6.3.3.5.i.r.f.C.D.F.Y.Y.Y.Y.",
"=X=X=X=X=X=X=X=X=X=X=X=X=X=X=X=X8X8X8X8X=X=X=X+X+X X~.Q.E.S.s.*.O.I Y v , , < ; ; : 3 3 4 4 3 2 & & # & 2 6 6 w F R ) _ 4.4.6.6.6.3.3.3.5.i.w.r.C.D.F.Y.Y.Y.Y.Y.",
"=X=X=X=X=X=X=X=X=X=X=X=X=X=X=X=X8X8X8X8X=X=X=X#X+X X X/.E.F.V.*.O.I P v v < < < < < 7 7 4 4 4 2 & & # & 2 2 6 w w R / ) _ 4.4.3.3.3.3.5.i.0.r.c.C.D.F.Y.Y.E.E.E.",
"=X=X=X=X=X=X=X=X=X=X=X=X=X=X=X=X=X8X8X8X=X=X=X*X+X X X/.W.F.V.q.o.O.I P v v z z < 0 0 0 7 7 4 3 2 & & & 2 2 5 6 q F R / ) ( ( >.>.3.5.5.0.w.r.C.D.F.Y.Y.Q.E.Q.Q.",
"=X=X=X=X=X=X=X=X=X=X=X=X=X=X=X=X8X8X8X8X=X=X=X*X%XXX^.W.W.G.Z.d.q.o.I I Y Y c c A A A 0 0 0 7 4 2 2 1 1 1 3 5 5 q q F T T W ! ~ ;.;.1.1.0.r.c.C.D.Y.Y.Q.~.Q.|.|.",
"=X=X=X=X=X=X=X=X=X=X=X=X=X=X=X=X8X8X8X8X=X=X*X*X%XXX].`.W.G.A.d.q.<.o.I I U U Y E S S A A 0 0 7 4 3 1 1 1 3 3 4 7 0 q A T T W ! ;.;.1.0.0.r.C.D.F.Y.Q.~.|.|.|..X",
"=X=X=X=X=X=X=X=X=X=X=X=X=X=X=X=X8X8X8X8X=X=X*X*X%XXX].`.(.L.D.C.d.q.<.o...I I Q E E E S S A 0 0 7 4 3 3 3 3 3 3 7 0 0 A A S E ! ~ ;.1.0.r.r.C.D.Y.E.Q.~.|..X.X.X",
"=X=X=X=X=X=X=X=X=X=X=X=X=X=X=X=X8X8X8X8X=X=X*X*X%XXX].`.(.W.G.A.d.d.q.<.o.o.-.-.^ ^ ! W W S A Z 0 7 7 4 4 4 4 7 7 0 0 Z A S E ! ^ -.2.0.r.r.C.D.Y.Q.~.|.|.|.|..X",
"=X=X=X=X=X=X=X=X=X=X=X=X=X=X=X=X8X8X8X8X=X=X*X*X%X%XXX].`.(.L.G.A.d.d.q.q.9.<.2.2.2.;.~ ! W S S Z 0 8 7 7 : : : > < z z c S E Q -.-.2.0.r.C.C.F.Y.Q.~.|.|..X.X.X",
"=X=X=X=X=X=X=X=X=X=X=X=X=X=X=X=X=X8X=X=X=X=X*X*X%X%XXX].`.`./.W.G.A.C.d.d.e.q.q.0.1.2.2.;.~ ! E S Z Z 8 > > > > < z z c c N U Q -.:.2.9.q.C.S.F.Y.Q.|.|.|..X.X@X",
"=X=X=X=X=X=X=X=X=X=X=X=X=X=X=X=X=X=X=X=X=X=X*X*X*X%X%XXX].].`./.W.L.G.D.A.C.C.f.f.r.0.0.1.2.-.! E S S Z z z z z z x c c N N U } -.:.9.q.e.V.S.Y.E.~.|. X X#X@X@X",
"=X=X=X=X=X=X=X=X=X=X=X=X=X=X=X=X=X=X=X=X=X=X*X*X*X%X%X%XXX].].].^./.W.W.T.G.A.A.A.C.f.r.w.0.2.-.^ Q G G c c c x c N N N B U } }  .<.9.q.e.V.F.Y.E.~.|. X#X#X@X#X",
"=X=X=X=X=X=X=X=X=X=X=X=X=X=X=X=X=X=X=X=X=X=X=X*X*X*X%X%X+XXXXXXXXX].].`.`.(.(.W.G.G.A.C.C.r.q.<.:.-.Q Q U N N N B B B U U } .. . .<.9.t.e.V.F.Y.E.^. X X#X#X#X#X",
"=X=X=X=X=X=X=X=X=X=X=X=X=X=X=X=X=X=X=X=X=X=X=X*X*X*X+X+X+X+X%X%X%XXXXXXXXX].`.`.(.W.T.D.D.C.d.q.9.<.:.-.-.} } } } } } ...... . .o.#.9.e.e.V.F.Y./.^. X+X#X#X#X$X",
"=X=X=X=X=X=X=X=X=X=X=X=X=X=X=X=X=X=X=X=X=X=X=X$X#X#X#X#X+X+X*X*X*X*X*X*XXXXXXXXX].W.W.W.T.D.V.V.e.9.9.:.:. . . . .....| | | +.@.#.$.t.e.V.V.F.W./.^. X+X#X$X$X$X",
"=X=X=X=X=X=X=X=X=X=X=X=X=X=X=X=X=X=X=X=X=X=X*X#X#X#X#X#X$X$X=X=X=X:X=X=X*X*XXXXX X X^./.W.T.F.V.V.e.t.9.9.#.@.@.@.+.+.+.+.+.#.#.$.&.&.d.V.F.F.W./.^. X+X#X$X$X$X",
"=X=X=X=X=X=X=X=X=X=X=X=X=X=X=X=X=X=X=X=X=X=X$X$X$X$X$X$X$X$X=X=X=X:X:X:X=X*X*XXX X X X^./.W.T.F.S.V.x.e.t.$.$.$.$.$.$.$.$.$.$.$.&.&.s.V.V.F.Y./.^. X X+X#X$X$X$X",
"$X$X$X$X=X=X$X=X=X*X=X=X$X$X$X$X*X*X*X*X$X$X=X$X=X$X$X$X$X$X=X=X=X=X=X*X*X*X*X+X X X X X^./.W.Y.F.S.V.V.x.x.&.&.&.&.&.z.z.z.z.z.z.b.V.V.S.F.E./.^. X+X+X#X$X$X$X",
"#X#X#X#X#X#X#X$X$X*X#X#X#X#X#X#X#X#X#X#X#X$X=X=X=X=X=X=X=X=X=X=X=X*X*X*X*X+X+X+X X X X X X^./.E.Y.Y.F.S.S.V.V.b.z.z.z.z.z.z.b.b.b.b.S.S.F.E.Q./.^. X+X+X#X$X$X$X",
"#X#X#X$X$X$X$X$X$X$X$X$X$X#X#X#X#X#X#X#X#X$X$X=X=X=X=X=X=X=X$X$X#X+X+X+X+X+X#X X X X X X X^.^.Q.E.E.Y.Y.F.F.F.S.n.n.n.n.n.n.n.n.m.m.F.F.E.Q.Q.~.~. X+X#X#X$X$X$X",
"#X#X#X#X#X#X#X#X$X$X#X#X#X#X#X#X#X#X#X#X#X#X$X=X=X=X=X=X=X=X$X#X+X#X+X X X X X X X X X X X X X^.^./.W.E.E.Y.Y.Y.Y.Y.N.N.N.N.N.N.N.Y.E.E.E.Q.~.~. X+X+X#X#X$X$X$X",
"#X#X#X#X#X#X#X#X#X#X#X#X#X#X#X#X#X#X#X#X#X#X=X=X=X=X=X=X=X$X$X+X#X+X X|.|.|.|.|.|.|. X X|. X X X^.^.^././.Q.Q.Q.E.E.E.E.B.B.B.E.E.E.E.E.Q.~.~.~. X+X+X#X#X#X$X$X",
"#X#X#X#X#X#X#X#X#X#X#X#X#X#X#X#X#X#X#X#X#X$X$X=X=X=X=X=X=X$X#X+X+X X|.|.|.|.|.|.|.|.|.+X|. X X X X X X^.^.^.~.~.~.Q.Q.Q.Q.Q.Q.Q.Q.Q.Q.~.~.~.~. X+X+X#X#X#X#X$X$X",
"#X#X#X#X#X#X#X#X#X#X#X#X#X#X#X#X#X#X#X#X$X$X$X=X=X=X=X=X=X=X+X+X+X X|.|.|.|.|.|.|.|.OX+X+X+X+X X X X X X X X X|.|.|.|.~.~.~.~.~.~.~.~.~.~.~. XOX+X+X#X#X#X#X#X#X",
"#X#X#X#X#X#X#X#X#X#X#X#X#X#X#X#X#X#X#X#X#X$X$X=X=X=X=X=X=X$X+X+X+X X|.|.|.|.|.|.|.OX+X#X#X#X+X+X+X+X+X X X X X X|.|.|.|.|.|.|.|.~.~.~.~.~.|.OX+X+X+X#X#X#X#X#X#X",
"#X#X#X#X#X#X#X#X#X#X#X#X#X#X#X#X#X#X#X#X#X$X$X$X=X=X=X=X$X#X#X+X+X+X|.|.|.|.|.|.OX+X#X#X#X#X#X#X#X#X+X+X+X+X+X+XOXOX|.|.|.|.|.|.|.|.|.|.OXOX+X+X+X+X#X#X#X#X#X#X",
"#X#X#X#X#X#X#X#X#X#X#X#X#X#X#X#X#X#X#X#X#X#X$X$X$X$X$X$X$X#X#X+X+X+X+XOXOXOXOXOX+X#X#X#X#X#X#X#X#X#X#X#X#X#X#X#XOXOXOXOXOXOX|.|.OXOXOXOXOX+X+X+X+X#X#X#X#X#X#X#X",
"#X#X#X#X#X#X#X#X#X#X#X#X#X#X#X#X#X#X#X#X#X#X#X#X$X$X#X#X#X#X#X+X#X#X+X+X+X+X+X+X#X#X#X#X#X#X#X#X#X#X#X#X#X#X#X#X@X@X@XOXOXOXOXOXOXOX+X+X+X+X+X+X+X#X#X#X#X#X#X#X",
"#X#X#X#X#X#X#X#X#X#X#X#X#X#X#X#X#X#X#X#X#X#X#X#X#X#X#X#X#X#X#X+X#X#X#X#X#X#X#X#X#X#X#X#X#X#X#X#X#X#X#X#X#X#X#X#X#X@X@X@X@X@XOXOX+X+X+X+X+X+X+X+X#X#X#X#X#X#X#X#X",
"#X#X#X#X#X#X#X#X#X#X#X#X#X#X#X#X#X#X#X#X#X#X#X#X#X#X#X#X#X#X#X#X#X#X#X#X#X#X#X#X#X#X#X#X#X#X#X#X#X#X#X#X#X#X#X#X#X#X#X#X#X#X#X#X#X+X+X+X+X+X+X+X#X#X#X#X#X#X#X#X",
"#X#X#X#X#X#X#X#X#X#X#X#X#X#X#X#X#X#X#X#X#X#X#X#X#X#X#X+X#X#X#X#X#X#X#X#X#X#X#X#X#X#X#X#X#X#X#X#X#X#X#X#X#X#X#X#X#X#X#X#X#X#X#X#X#X#X#X#X+X#X#X#X#X#X#X#X#X#X#X#X",
"#X#X#X#X#X#X#X#X#X#X#X#X#X#X#X#X#X#X#X#X#X#X#X#X#X#X#X#X+X#X#X#X#X#X#X#X#X#X#X#X#X#X#X#X#X#X#X#X#X#X#X#X#X#X#X#X#X#X#X#X#X#X#X#X#X#X#X#X#X#X#X#X#X#X#X#X#X#X#X#X",
"#X#X#X#X#X#X#X#X#X#X#X#X#X#X#X#X#X#X#X#X#X#X#X#X#X#X#X#X#X#X#X#X#X#X#X#X#X$X$X$X#X#X#X#X#X#X#X#X#X#X#X#X#X#X#X#X#X#X#X#X#X#X#X#X#X#X#X#X#X#X#X#X#X#X#X#X#X#X#X#X",
"#X#X#X#X#X#X#X#X#X#X#X#X#X#X#X#X#X#X#X#X#X#X#X#X#X#X#X#X#X#X#X#X#X#X#X$X$X$X$X$X$X$X#X#X#X#X#X#X#X#X#X#X#X#X#X#X#X#X#X#X#X#X#X#X#X#X#X#X#X#X#X#X#X#X#X#X#X#X#X#X",
"#X#X#X#X#X#X#X#X#X#X#X#X#X#X#X#X#X#X#X#X#X#X#X#X#X#X#X#X#X#X#X#X#X#X$X$X$X$X$X$X$X$X#X#X$X#X$X$X#X#X#X#X#X#X#X#X#X#X#X#X#X#X#X#X#X#X#X#X#X#X#X#X#X#X#X#X#X#X#X#X"
};
