/* XPM */
static char *avyk4_6w33f[] = {
/* columns rows colors chars-per-pixel */
"80 80 179 2 ",
"   c #969496",
".  c #989697",
"X  c #96959A",
"o  c #989799",
"O  c #9F9D9E",
"+  c #9E9C9F",
"@  c #9E9D9F",
"#  c #9F9D9F",
"$  c #9E9C9E",
"%  c #9E9E9F",
"&  c #9F9E9F",
"*  c #9D9C9E",
"=  c #9B9A9C",
"-  c #A09D9E",
";  c #A09D9F",
":  c #A09E9E",
">  c #A09E9F",
",  c #A19E9F",
"<  c #9D9DA0",
"1  c #9E9DA0",
"2  c #9E9EA0",
"3  c #9F9EA0",
"4  c #9F9FA0",
"5  c #9F9EA1",
"6  c #9F9FA1",
"7  c #9F9FA2",
"8  c #9E9EA0",
"9  c #A09EA0",
"0  c #A19EA0",
"q  c #A09FA0",
"w  c #A19FA0",
"e  c #A09FA1",
"r  c #A19FA1",
"t  c #A29FA1",
"y  c #A09FA2",
"u  c #A19FA2",
"i  c #A09FA1",
"p  c #A0A0A1",
"a  c #A1A0A1",
"s  c #A2A0A1",
"d  c #A3A1A1",
"f  c #A0A0A2",
"g  c #A1A0A2",
"h  c #A1A1A2",
"j  c #A0A0A3",
"k  c #A1A0A3",
"l  c #A1A1A3",
"z  c #A2A0A2",
"x  c #A3A0A2",
"c  c #A2A1A2",
"v  c #A3A1A2",
"b  c #A2A0A3",
"n  c #A3A0A3",
"m  c #A2A1A3",
"M  c #A3A1A3",
"N  c #A3A2A2",
"B  c #A2A2A3",
"V  c #A3A2A3",
"C  c #A4A2A2",
"Z  c #A4A2A3",
"A  c #A4A3A3",
"S  c #A5A3A3",
"D  c #A1A1A4",
"F  c #A2A1A4",
"G  c #A3A1A4",
"H  c #A2A2A4",
"J  c #A3A2A4",
"K  c #A3A3A4",
"L  c #A3A2A5",
"P  c #A3A3A5",
"I  c #A3A3A6",
"U  c #A4A1A4",
"Y  c #A4A2A4",
"T  c #A4A3A4",
"R  c #A5A3A4",
"E  c #A4A2A5",
"W  c #A4A3A5",
"Q  c #A5A3A5",
"!  c #A4A2A6",
"~  c #A5A2A6",
"^  c #A4A3A6",
"/  c #A5A3A6",
"(  c #A4A3A7",
")  c #A5A3A7",
"_  c #A5A4A4",
"`  c #A4A4A5",
"'  c #A5A4A5",
"]  c #A6A4A4",
"[  c #A6A4A5",
"{  c #A6A5A5",
"}  c #A7A5A5",
"|  c #A4A4A6",
" . c #A5A4A6",
".. c #A5A5A6",
"X. c #A4A4A7",
"o. c #A5A4A7",
"O. c #A5A5A7",
"+. c #A6A4A6",
"@. c #A6A5A6",
"#. c #A7A5A6",
"$. c #A6A4A7",
"%. c #A6A5A7",
"&. c #A7A5A7",
"*. c #A7A6A6",
"=. c #A6A6A7",
"-. c #A7A6A7",
";. c #A7A7A7",
":. c #A4A3A5",
">. c #A8A6A6",
",. c #A8A6A7",
"<. c #A8A7A7",
"1. c #A9A7A7",
"2. c #A8A7A7",
"3. c #A5A4A8",
"4. c #A5A5A8",
"5. c #A6A4A8",
"6. c #A6A5A8",
"7. c #A7A5A8",
"8. c #A6A5A9",
"9. c #A7A5A9",
"0. c #A6A6A8",
"q. c #A7A6A8",
"w. c #A7A7A8",
"e. c #A6A6A9",
"r. c #A7A6A9",
"t. c #A7A7A9",
"y. c #A7A5A8",
"u. c #A8A6A8",
"i. c #A8A7A8",
"p. c #A9A7A8",
"a. c #A8A7A9",
"s. c #A9A7A9",
"d. c #A8A6AA",
"f. c #A8A7AA",
"g. c #A9A7AA",
"h. c #A9A7AB",
"j. c #A8A7A8",
"k. c #A8A8A8",
"l. c #A9A8A8",
"z. c #A8A8A9",
"x. c #A9A8A9",
"c. c #A9A9A9",
"v. c #AAA8A9",
"b. c #AAA9A9",
"n. c #A8A8AA",
"m. c #A9A8AA",
"M. c #A9A9AA",
"N. c #A8A8AB",
"B. c #A9A8AB",
"V. c #A9A9AB",
"C. c #AAA8AA",
"Z. c #AAA9AA",
"A. c #ABA9AA",
"S. c #AAA8AB",
"D. c #AAA9AB",
"F. c #ABA9AB",
"G. c #AAAAAA",
"H. c #ABAAAA",
"J. c #AAAAAB",
"K. c #ABAAAB",
"L. c #ABABAB",
"P. c #ACABAB",
"I. c #A9A9AC",
"U. c #AAA9AC",
"Y. c #ABA9AC",
"T. c #AAAAAC",
"R. c #ABAAAC",
"E. c #ABABAC",
"W. c #AAAAAD",
"Q. c #ABAAAD",
"!. c #ABABAD",
"~. c #ACABAC",
"^. c #ACABAD",
"/. c #ACABAE",
"(. c #ACACAC",
"). c #ACACAD",
"_. c #ACACAE",
"`. c #ACADAE",
"'. c #A9A9AA",
/* pixels */
"= = = = = = = = $ $ $ 3 3 3 $ $ $ $ $ * * $ $ 3 3 p p J J J p p p p p p p p p J J J T T ' w.w.w.' w.w.w.p.v.v.v.v.T.T.T./._._._._._._._._.T.T.v.v.w.w.w.w.w.' T ",
"= = = = = = = = $ $ $ 3 3 3 $ $ $ $ $ $ $ $ $ 3 3 p p J J J p p p p p p p p p J J J T ' ' w.w.w.' w.w.w.p.v.v.v.v.T.T.T.T._._._._._._._._.T.T.v.v.w.w.w.w.w.' T ",
"= = = = = = = = $ $ $ 3 3 3 3 $ $ $ $ $ $ $ 3 3 p p p J J J J p p p p p p p J J J T T T ' w.w.w.w.w.w.w.p.v.v.v.v.T.T.T.T./._._._._._._.T.T.T.v.p.w.w.w.w.' T T ",
"= = = = = = = = $ $ $ 3 3 3 3 $ $ $ $ $ $ $ 3 3 p p p J J J J p p p p p p J J J J T T ' w.w.w.w.w.w.w.p.p.v.v.v.v.T.T.T.T.T./._._._._.T.T.T.T.v.p.w.w.w.w.T T T ",
"= = = = = = = = $ $ $ $ 3 3 3 3 3 3 3 3 3 3 3 p p p p J J J J J J J J J J J J T T T ' ' w.w.w.w.w.w.p.p.p.v.v.v.v.T.T.T.T.T.T.T.T.T.T.T.T.T.T.p.w.w.w.w.w.' T T ",
"= = = = = = = $ $ $ $ $ $ 3 3 3 3 3 3 3 3 p p p p p J J J J J J J J J J T T T T T ' ' ' w.w.w.p.w.p.p.p.v.v.v.v.v.v.T.T.T.T.T.T.T.T.T.T.T.T.v.p.w.w.w.w.w.w.T T ",
"= = = = $ $ $ $ $ $ $ $ $ $ 3 3 q p p p p p p p p J J J J J J T T T T T ' ' ' ' ' ' w.w.w.w.p.p.p.p.v.v.v.v.v.v.v.v.v.v.T.T.T.T.T.T.T.T.T.T.p.w.w.w.w.w.w.) ) T ",
"$ $ $ $ $ $ $ $ $ $ $ $ $ $ 3 q p p p p p p J J J J J J J J T T ' ' ' ' ' w.w.w.w.w.w.w.w.p.p.v.v.v.v.v.v.v.v.v.v.v.v.v.v.v.v.v.v.v.T.T.v.v.p.w.w.w.w.w.w.w.) ) ",
"$ $ $ $ $ $ $ $ $ $ $ $ $ 3 3 p p p J ' ' ' ' T T J J J J T T ' ' ' w.w.w.w.p.p.p.p.p.p.p.v.v.v.v.v.v.v.v.v.v.v.v.v.p.w.w.w.p.p.w.w.p.w.w.w.w.w.w.w.w.w.w.w.w.w.",
"q q q 3 3 3 $ $ $ $ $ $ $ $ q p p T ' ' ' ' ' ' ' T T J J T ' ' w.w.w.v.v.v.v.v.v.v.v.v.v.v.v.v.v.v.T.T.T.v.v.v.v.p.w.w.w.w.w.w.w.w.w.w.w.w.w.w.w.w.w.w.w.w.w.w.",
"q q q q q 3 3 $ $ $ $ $ $ 3 q p p ' ' ' ,.,.' ' ' ' T T T T ' w.w.p.v.v.v.v.v.v.v.v.v.v.v.v.v.v.v.T.T.T.T.T.v.v.p.w.w.w.w.w.w.w.w.w.w.w.w.w.w.w.w.w.) ) w.) w.w.",
"q q q q q 3 3 $ $ $ $ $ $ 3 q p T ' ' p.v.v.p.' ' ' T T T ' ' w.w.v.v.T.T.T.T.T.T.v.v.v.v.v.v.v./././.T.T.T.v.v.p.w.w.w.w.w.w.w.' w.w.w.w.w.w.w.w.w.) ) ) ) w.w.",
"q q q q q 3 3 $ $ $ $ $ $ 3 p p T ' ,.v.v.v.p.' ' ' ' T T ' ' w.p.v.T.T.T.T././.T.T.v.v.v.v.P.P././././.T.T.T.v.p.w.w.w.w.w.w.' w.w.w.w.w.w.w.) T T T T T T T T ",
"q q 3 3 3 3 $ $ $ $ $ $ $ 3 p p T ' ' v.v.v.p.' ' ' ' ' ' ' ' w.v.v.T.T./._._._././.P.P.P.P././././././.T.T.T.v.p.p.w.w.w.w.' ' ' w.' ' ' T T T T T T T T T T T ",
"3 3 $ $ $ $ $ $ $ $ $ $ 3 q p p T ' ' ,.p.p.p.' ' ' ' ' ' ' w.w.v.v.T.T._._._._._._././.P.P././././././.T.T.v.v.v.p.w.w.w.w.' ' w.w.w.' T T T T T T J J T T C C ",
"$ $ $ $ $ $ $ $ $ $ $ 3 3 q p p T ' ' ' ' ' ' ' ' ' ' ' ' ' w.p.v.v.T.T._._._._._._._._././././././././.T.T.v.v.v.p.p.w.w.w.w.w.w.w.w.' T T T T J J p p p p q q ",
"= = = = = = = $ $ $ $ 3 q p p p J T ' ' ' ' ' ' ' ' ' ' ' w.p.v.v.v.v.v./._._._._._._./._._././././.P.P././.v.v.v.v.v.v.p.p.p.w.w.w.' ' T T T J J p p q q q q > ",
"= = = = = = = = $ $ 3 3 q p p p p J T T ' ' ' ' ' ' ' ' w.p.p.v.v.v.v.v.P./._._._._._._._._._././.P.P.P.P.v.v.v.v.v.v.v.v.v.p.p.w.w.w.' T T J J p q q q > > > > ",
"= = = = = = = = $ $ 3 q q p p p p p J J J T T ' ' ' ' ' p.p.v.v.v.v.v.v.v.P._._././._._._._./././.P.P.P.v.v.v.v.v.v.v.v.v.v.v.p.w.w.w.' T T J p q q > > > > > > ",
"= = = = = = = = $ $ $ q q p p p p p p p p J T ' ' ' ' ' p.v.v.v.v.v.v.v.v.v./._././././././.T.T.P.v.v.v.v.v.v.v.v.v.v.v.v.v.v.p.w.w.w.' T T J p q q > > > $ O = ",
". . o o = = = = $ $ $ 3 q q q p p p p p p p T T ' ' ' p.v.v.v.v.v.v.v.v.v.v././.T.T.T.T.T.T.T.T.v.v.v.v.v.v.v.v.v.v.v.v.v.v.v.p.p.w.w.' T T J p q > > $ $ $ = = ",
". . . o = = = = = $ $ $ q q q q q q p p p p J T ' ' ' p.v.v.v.v.v.v.v.v.v.v././.v.T.T.T.T.T.T.T.v.v.v.v.v.v.v.v.v.v.v.v.v.v.v.v.p.w.w.' T T J p q > > $ $ $ = = ",
". . . . o = = = = = $ $ $ $ $ $ q q q q p p p T ' ' p.v.v.v.v.v.v.v.v.v.v.v.v.v.v.T.v.v.T.T.T.v.v.v.v.v.v.v.v.v.v.v.v.v.v.v.v.v.p.w.w.' T T J p q q > > $ $ $ $ ",
". . . . . o = = = = = $ $ $ $ $ $ $ q q p p p T ' ' p.v.v.v.v.v.v.v.v.v.v.v.v.v.v.v.v.v.v.v.v.v.v.v.v.v.v.v.v.v.v.v.v.v.v.v.v.v.p.w.w.' T T J p p q > > $ $ $ $ ",
". . . . o o = = = = = = = = = $ $ $ > q q p p T ' ' p.v.v.v.v.v.P.P.v.v.v.v.v.v.v.v.v.v.p.p.p.w.w.w.p.p.p.v.v.v.v.v.v.P.v.v.v.v.p.w.w.' T J J J p q q > > > > $ ",
". . . . o o o = = = = = = = = = $ $ $ q q p C T ' ,.v.v.v.v.v.v.P.P.P.v.v.v.v.v.v.v.p.w.w.w.w.w.w.w.w.w.w.p.p.v.v.v.v.v.v.v.v.v.p.w.w.' T T J J p p q q q q q q ",
". . . o o o . o . . . = = = = = = $ $ > q p C ' ' ,.v.v.v.v.P.P.P.P.P.v.v.v.v.v.p.p.w.w.w.w.w.w.w.w.w.w.w.w.p.v.v.v.v.v.v.v.v.v.p.w.w.w.T T J J p p p q q q q q ",
"o o o o o . . . . . . . . = = = = $ $ > q p C ' ' ,.v.v.v.v.P.P.P.P.v.v.v.v.v.v.p.w.w.w.w.w.w.w.' ' ' ' w.w.w.p.v.v.v.v.v.v.v.v.w.w.w.w.T T J J J p p p p p p q ",
"= = o . . . . . . . . . . . = = = = $ > q p C ' ' ,.v.v.v.v.v.P.v.v.v.v.v.v.v.p.w.w.w.' ' ' ' ' T T T ' ' ' w.w.p.v.v.v.v.v.v.p.w.w.w.w.' T T J J p p p p p p p ",
"= = = = . . . . . . . . . . = = = = $ > > p C ' ' ,.v.v.v.v.v.v.v.v.v.v.v.v.p.w.w.' ' ' T T T T T T T T ' ' ' ' ' w.p.p.p.p.w.w.w.w.w.w.' T T T J J p p p p p p ",
"= = = = = . . . . . . . . . . = = = $ > > p C ' ' ,.v.v.v.v.v.v.v.v.v.p.p.' ' ' ' ' T T T J J J J J J J T T ' ' ' ' ' ' ' ' ' ' w.w.' ' ' T T T J J p p p p p p ",
"= = = = = = . . . . . . . . . = = = $ > > p C ' ' ,.v.v.v.v.v.v.v.v.p.' ' ' ' ' T T J J J J J J J J J J J J J J T T T ' ' ' ' ' ' ' ' ' ' T T T J J J p p p p p ",
"= = = = = = . . . . . . . . . = = = $ > q p C ' ' ,.v.v.v.v.v.v.v.' ' ' ' ' ' T T T J J J J J J J J J J J J J J p p p p J J J T T ' ' ' ' T T J J J J p p p p p ",
"= = = = = = = . . . . . . . . = = = $ > q p C ' ' ,.v.v.v.v.v.v.p.' ' ' ' T J J J J J J J J p p J J J J J p p p p p p p p p p J J T T ' ' T T J J J J p p p p p ",
"= = = = = = = . . . . . . . . = = = $ > q p C ' ' ,.v.v.v.v.v.p.' ' ' T J J p p p p p p p p p p p p p p p p p p q q 3 3 p p p p J J T T ' T T J J J J p p p p p ",
"= = = = = = = . . . . . . . . = = = $ > q p C ' ' ,.v.v.v.v.v.,.' ' T J p p p p p p p p p p p p p p p p p p p q 3 3 3 3 3 3 p p J J T T T T T J J J J p p p p p ",
"= = = = = = = = . . . . . . o = = = $ $ q p C ' ' ,.v.v.v.v.,.' ' T J p p p p p p p p p p p p p p p p p p p p q 3 3 3 3 3 3 q p J J T T T T T J J J p p p p p p ",
"= = = = = = = = o . . . o o = = = = $ $ q p p T ' ' ,.p.p.p.' ' ' T p p p p p p p p p p p p p p p p p p p p p q 3 3 3 3 3 3 p p J J T T T T T J J J p p p p p p ",
"= = = = = = = = = o o o o = = = = = $ $ > p p C ' ' ' ,.,.,.' ' T p p p p p p p p p p p p T J J J J J J p p p p q 3 3 3 3 3 p J J J T T T T T J J p p p p p q q ",
"= = = = = = = = = = = = = = = = = = $ $ $ q p p T ' ' ' ' ' ' T C p p p q p p p p C T T T T T T T T J J J J p p p p p q p p p J J J T T T T T J J p p p p q q q ",
"= = = = = = = = = = = = = = = = = = $ $ $ 3 p p C T ' ' ' ' T T p p p q q q p p p C T T ' ' ' ' T T T J J J J J J p p p J J J J J J T ' ' T T J J p p p q q q q ",
"= = = = = = = = = = = = = = = = = $ $ $ $ $ 3 p p T T T T T T C p p q q q p p p C C ' ' ' ' ' ' ' ' T T T J J J J J J J J J J J J T T ' ' T T J J p p p q q q q ",
"= = = = = = = = = = = = = = = = = $ $ $ $ $ 3 q p p T T T T C p p p q q q p p C C ' ' ' ' ' ' ' ' ' ' T T T J J J J J J J J T T T T T T ' T T J J p p p q q q q ",
"= = = = = = = = = = = = = = = * $ $ $ $ $ $ 3 q p p p p C p p p p p q q q p p C C ' ' ,.,.,.,.' ' ' ' ' ' ' T T T T T T T T ' ' T T T T ' T T J J p p p p q q q ",
"= = = = = = = = = = $ $ = * * * $ $ $ $ $ $ 3 3 q p p p p p p p p q q q p p C C ' ' ,.,.,.,.,.,.w.w.' ' T T T T T T T T ' ' w.w.w.w.w.T ' T T J J J p p p p p p ",
"= = = = = = = = = = = $ = * * $ $ $ $ $ $ $ 3 3 q p p p p p p p p p q p p p C C ' ' ,.,.,.,.,.,.w.w.w.w.' w.T T T T T T w.w.w.w.w.w.w.' ' T T T J J p p p p p p ",
"= = = = = = = = = = = = = = $ $ $ $ $ $ $ 3 3 3 q q p p p p p p p p p p p C C T ' ,.,.,.,.,.,.,.w.w.w.w.w.w.w.w.w.w.T ' w.w.w.w.w.w.w.' ' T T T T J J J J p p p ",
"= = = = = = = = = = = = = = $ $ $ $ $ $ 3 3 3 3 q q q p p p p p p p p p C T T ' ' ,.,.,.,.,.,.,.w.w.w.w.w.w.w.w.w.w.T ' w.w.w.w.w.w.' ' ' T T T T T T J T T J J ",
"= = = = = = = = = = = = = = = $ $ $ $ 3 3 3 3 3 q q q q p p p p p p J J T T ' ' ' ,.,.,.,.p.p.p.' ' w.' w.w.T T T T w.w.w.w.w.w.T T T T ' ' T T T T T T T T T ' ",
"= = = = = = = = = = = = = = = $ $ $ $ 3 3 3 3 3 q q q q p p p p J J J T T T ' ' ' ,.,.,.,.,.p.,.' ' ' ' w.w.T T T T w.w.w.w.' w.T T T T w.' ' ' ' ' ' ' ' ' ' ' ",
"= = = = = = = = = = = = = = = $ $ $ 3 3 3 3 q q q q q q p p p J J J T T T ' ' ' ,.,.,.,.,.,.,.,.w.' ' ' w.w.w.w.T T ' w.T T T T T T ' ' w.w.w.w.' ' ' ' ' ' ' ' ",
"= = = = = = = = = = = = = = = $ $ $ 3 3 q q q q q q q q p p p J J J T T ' ' ' ' ' ,.,.,.,.,.,.,.' ' ' ' w.w.w.w.T T ' w.T T T T ' ' ' w.w.w.w.w.w.w.w.w.w.w.w.w.",
"= = = = = = = = = = = = = = = $ $ 3 3 q q q p q q q q p p p p J J J T T ' ' ' ' ' ,.,.,.,.,.,.' ' ' ' ' ' ' w.w.T T T T T ' w.w.w.w.w.w.w.w.w.w.w.w.p.p.p.p.p.p.",
"o o o o o o = = = = = = = = = $ $ 3 3 q q p p p p p p p p p p J J J J T T ' ' ' ' ' ' ' ' ' ' ' ' ' ' ' ' ' ' ' T T T T ' w.w.w.w.w.w.w.w.w.w.p.p.p.v.v.v.v.v.v.",
"o o o o o o o o = = = = = = $ $ $ 3 q q p p p p p p p p p p p J J J J J T T T T ' ' ' ' ' ' ' ' ' ' ' ' T T T ' T T T T w.w.w.w.w.w.w.w.w.p.p.v.v.v.v.v.v.v.v.v.",
". . . . . o o o = = = = = = $ $ $ 3 q q p p p p p p p p p p p J J J J J J J J T T T T T ' ' ' T T T T T T T T T T T T ' w.w.w.w.w.w.w.p.v.v.v.v.v.v.v.v.v.v.v.v.",
"      . . . . o o = = = = = $ $ 3 3 q q p p p p p p p p p p J J p p p J J J J J p p C T T T T T T T T T T T T T T ' w.w.w.w.w.w.w.p.v.v.v.T.T.T.v.v.v.v.T.T.v.v.",
"          . . . o = = = = = $ $ 3 3 q q p p p p p p p p J J J p p p p p p p p p p p p p p p p J J J J J T T T T T ' w.w.w.w.w.w.p.v.T.T.T.T.T.T.T.T.T.T.T.T.T.T.",
"            . . o = = = = $ $ $ 3 3 q q p p p p p p J J J J p p p p p q q q q p p p p p p p p p J J J J J T T T T ' w.w.w.w.w.w.v.T.T.T.T.T.T.T.T.T././././.T.T.",
"            . . o o = = = $ $ $ 3 3 q p p p p p p p J J J p p p p q q q q q q q p p p p p p p p J J J J J T T T T T ' w.w.w.w.w.v.T.T.T.T.T.T.T./././././././.T.",
"          . . . o = = = = $ $ $ 3 q q p p p p p p p J J p p p p p p q q q q q q p p p p p p p p J J J J T T T T T T T ' ' w.w.w.v.T.T.T.T./././././././.T.T.T.T.",
"        . . . . o = = = = = $ $ 3 q q p p p p p p p p p p p p p q q q q q q q p p p p p p p p J J J T T T T T T T T T ' ' w.w.w.v.v.T.T.T././././.T.T.T.T.T.T.T.",
". . . . . . . . o = = = = = $ $ 3 q q p p p p p p p p p q q q q q q q q p p p p p p p J J T T T T T T T T T T T T T T T ' ' w.w.v.v.v.T.T.T.T.T.T.T.T.T.T.T.T.T.",
". . . o o o o o o o = = = = = $ 3 q q p p p p p q q q 3 3 3 3 3 q q q p p p p p T T T ' ' ' ' ' ' ' ' ' ' ' ' T T T T T T ' w.w.p.v.v.v.v.T.T.T.T.v.v.v.T.S.S.T.",
"= = = = = = = = = = = = = = = = 3 3 q p p p q 3 3 3 3 3 3 3 3 3 3 q p p p p J T T ' ' ' ' ' ' ' ' ' ' ' ' ' ' ' T T T T ' ' ' w.w.v.v.v.v.v.v.v.v.p.p.p.p.p.p.p.",
"= = = = = = = = = = o o o = = = 3 3 q q p q 3 3 3 3 3 $ $ 3 3 3 3 q p p p J T ' ' ' ' ' ' ' ,.' ' ' ' ' ' ' ' ' ' T T T T ' ' w.w.p.v.v.v.v.v.v.p.p.p.p.p.p.p.p.",
"= = = = = = = = = = o o o o = = $ 3 3 q q q 3 3 3 $ = = = = 3 3 3 3 p p J T ' ' ' ' p.v.v.v.v.p.p.p.p.w.' ' ' ' ' T T T T ' ' ' ' w.p.p.v.v.p.p.p.p.p.p.w.w.w.w.",
"$ $ $ $ $ = = = = o o X . o = = = 3 3 3 3 3 3 3 $ = = = = = = 3 3 3 p p J T ' ' ' p.v.v.v.v.v.v.v.v.v.p.p.w.' ' ' T T T T T ' ' ' w.w.p.p.p.p.w.w.w.w.w.w.w.w.w.",
"3 3 3 3 $ = = = = o X X X X o = = $ 3 3 3 3 3 $ = = = = = = = $ 3 3 p p J T ' ' ' p.v.v.v.v.v.v.v.v.v.p.p.w.' ' ' T T T T T T ' ' ' ' w.p.p.w.w.w.w.w.w.w.w.w.w.",
"3 3 3 3 $ = = = = o X X X X o = = = $ 3 3 3 $ = = = = = = = = = 3 3 p p J T ' ' ' p.v.v.v.v.v.v.v.v.v.v.v.p.w.' ' ' T T T T T ' ' ' ' w.w.w.w.w.w.w.w.w.) ) ) T ",
"3 3 3 3 $ = = = = o X X X X X o = = = = = = = = = = = = = = = = 3 3 q p p J T ' ' ' p.v.v.v.v.v.v.v.v.v.v.p.w.' ' ' T T T T T T ' ' ' w.w.w.w.w.w.' T T T T T T ",
"$ $ $ $ = = = = = X X . . X X X = = = = = = = = = = = = = = = = 3 3 q p p p T ' ' ' ' ' p.v.v.v.v.v.v.v.v.v.p.w.' ' T T T T T T ' ' ' w.w.w.w.' ' T T T T T T T ",
"= = = = = = = = X X . . . . . X X X o = = = = X o X o = = = = = $ 3 3 q p p J T ' ' ' ' ' w.p.v.v.v.v.v.v.v.p.w.' ' T J T T T T ' ' ' w.w.w.w.' T T T T T T T T ",
"= = = = = = = = X X . . . . . . . . . . . . . X X X o o = = = = $ 3 3 3 q p p J J T ' ' ' ' w.p.v.v.v.v.v.v.v.w.w.' T J J T T T T ' w.w.w.w.w.' T T T T T T T T ",
"= = = = = = = = X X . . . . . . . . . . . . . . . X X o = = = = $ 3 3 3 q p p p J J T T ' ' w.w.v.v.v.T.T.v.v.w.w.' ' T T T T T T ' w.w.w.w.w.T T T T T T J J J ",
"= = = = = = = o X X . . . . . . . . . . . . . . . . X o = = = = $ $ 3 3 3 q p p p p J J T ' w.w.v.v.T.T.T.v.v.w.w.' ' T T T T T T T w.w.w.w.T T T T T J J J J J ",
"= = = o o o o X X X . . . . . . X X X X . . . . . . X = = = = = = $ 3 3 q q p p p p J J J ' w.w.v.v.T.T.T.T.v.w.w.' ' T J J T T T T w.w.w.w.T T T T T T J J J J ",
"= = o o o X X X X X . . . . . X X X X X   . . . . . X o = = = = = $ $ 3 3 q q p p p p J J T ' w.v.v.T.T.T.T.v.w.w.' ' T J J T T T T w.w.w.) T T T T T J J J J J ",
"o o o X o o X X X X X . . . . X             . . . . X o = = = = = $ $ 3 3 q q p p p p J J T ' w.v.v.T.T.T.T.v.p.w.' ' T J J T T T T ) ) ) ) T T T T T J J J J J ",
"o o X X o X X X X X . . . . . X             . . . . X o = = = = = $ $ 3 3 q q p p p p J J J ' w.v.v.T.T.T.T.v.v.w.' ' T J J T T T T ) ) ) ) T T T T J J J J J J "
};
