/* XPM */
static char *axw34_cq412[] = {
/* columns rows colors chars-per-pixel */
"80 80 212 2 ",
"   c #7395AD",
".  c #7B96AB",
"X  c #7C98AD",
"o  c #6C8FB0",
"O  c #6E90B1",
"+  c #7394B2",
"@  c #7A96B1",
"#  c #749BB3",
"$  c #7B9AB4",
"%  c #7D9CB9",
"&  c #7BA3BA",
"*  c #7FA8BE",
"=  c #79A1B7",
"-  c #7FABC1",
";  c #849AAC",
":  c #8C9DAB",
">  c #979FA7",
",  c #989FA6",
"<  c #939FAA",
"1  c #839DB4",
"2  c #899FB3",
"3  c #829EB9",
"4  c #8EA0AF",
"5  c #9CA1A6",
"6  c #96A1AC",
"7  c #9BA4AB",
"8  c #9DA8AF",
"9  c #85A1B6",
"0  c #8CA2B4",
"q  c #85A2BB",
"w  c #8CA4BB",
"e  c #83A9BE",
"r  c #8BAABC",
"t  c #94A5B3",
"y  c #99A6B1",
"u  c #95A8B7",
"i  c #9CABB4",
"p  c #91A6BA",
"a  c #94AABC",
"s  c #9BADBA",
"d  c #9EB2BB",
"f  c #A3A4A6",
"g  c #A3A6AA",
"h  c #A5A9AC",
"j  c #ABACAD",
"k  c #B0AFAE",
"l  c #B1B0AF",
"z  c #A4ACB2",
"x  c #ABAEB1",
"c  c #A2AFBA",
"v  c #A3B0B7",
"b  c #AEB1B4",
"n  c #A2B3BD",
"m  c #ACB4BB",
"M  c #B1B3B5",
"N  c #B2B6BA",
"B  c #B4B9BD",
"V  c #B8BCBF",
"C  c #84AEC2",
"Z  c #8DABC1",
"A  c #8BA7C0",
"S  c #93ACC2",
"D  c #99AEC2",
"F  c #86B2C6",
"G  c #8CB3C5",
"H  c #8BB5C8",
"J  c #8EBBCC",
"K  c #94B2C6",
"L  c #9BB2C5",
"P  c #9EB9C2",
"I  c #93B5CA",
"U  c #9BB6C9",
"Y  c #93BBCD",
"T  c #9BBBCC",
"R  c #93BED1",
"E  c #9CBFD1",
"W  c #A3B5C4",
"Q  c #AAB6C2",
"!  c #A3BBC3",
"~  c #ACBBC3",
"^  c #A2B7C8",
"/  c #A3BBCC",
"(  c #ABBDCC",
")  c #B4BCC3",
"_  c #B9BEC2",
"`  c #B2BECA",
"'  c #A3BFD0",
"]  c #94C0CF",
"[  c #9BC1CE",
"{  c #95C3D3",
"}  c #9BC4D4",
"|  c #97C8D6",
" . c #9AC9D6",
".. c #9CCCD9",
"X. c #9ED0DC",
"o. c #A5C3CB",
"O. c #ACC3CC",
"+. c #A6C8CF",
"@. c #ACC9CE",
"#. c #A8C0C7",
"$. c #BBC1C6",
"%. c #B4C3CC",
"&. c #BCC4CA",
"*. c #B8C6CC",
"=. c #A4C4D3",
"-. c #AAC3D3",
";. c #A5C9D5",
":. c #A9CCD4",
">. c #A3CDDA",
",. c #ABCCD9",
"<. c #B3C5D2",
"1. c #BBC7D1",
"2. c #B4CBD4",
"3. c #BBCCD4",
"4. c #B4CDD9",
"5. c #BBCED9",
"6. c #AAD0D6",
"7. c #A4D2DD",
"8. c #ABD4DC",
"9. c #ADD8DE",
"0. c #B5D1D6",
"q. c #B4D4DC",
"w. c #BCD3DC",
"e. c #B4D9DE",
"r. c #BBD9DE",
"t. c #BCD1D7",
"y. c #A5D5E0",
"u. c #ABD6E0",
"i. c #A7D9E1",
"p. c #ADDCE3",
"a. c #AFDFE8",
"s. c #B4D6E1",
"d. c #BBD6E0",
"f. c #B3DDE3",
"g. c #BBDDE3",
"h. c #B6DFE8",
"j. c #AEE1E6",
"k. c #AFE1E8",
"l. c #B3E1E6",
"z. c #BBE1E6",
"x. c #B1E2E9",
"c. c #B2E5EA",
"v. c #B4E6EB",
"b. c #B3E7EB",
"n. c #BAE3E8",
"m. c #BDE5EA",
"M. c #BEE7EC",
"N. c #BBE5EA",
"B. c #B4E9ED",
"V. c #B5E9ED",
"C. c #B6E9ED",
"Z. c #B7EAEE",
"A. c #B4E8ED",
"S. c #B9E9ED",
"D. c #BBE9ED",
"F. c #BAE9ED",
"G. c #B9EAEE",
"H. c #BCE9ED",
"J. c #BEE9ED",
"K. c #BDEAEE",
"L. c #B9ECEF",
"P. c #BBEAEE",
"I. c #BAEDF0",
"U. c #BDEBF0",
"Y. c #C0C6CB",
"T. c #C3C9CE",
"R. c #C4CDD3",
"E. c #C8CFD3",
"W. c #C3CFD8",
"Q. c #CAD1D6",
"!. c #C3D4DC",
"~. c #CBD5DB",
"^. c #C1D9DF",
"/. c #CED8DE",
"(. c #D3DADE",
"). c #D0D7DB",
"_. c #C4D7E0",
"`. c #C3DCE3",
"'. c #CBDCE3",
"]. c #C9D7E0",
"[. c #D3DDE2",
"{. c #D8DEE2",
"}. c #C1E0E6",
"|. c #CDE0E7",
" X c #C1E5EA",
".X c #C1E7EC",
"XX c #C5E7EC",
"oX c #C4E4EA",
"OX c #CBE4EA",
"+X c #C1E9ED",
"@X c #C3EBEE",
"#X c #CBEBEE",
"$X c #D3E1E6",
"%X c #DBE2E6",
"&X c #D3E5EA",
"*X c #DAE6EA",
"=X c #D3EAEE",
"-X c #DBEAEE",
";X c #C5EDF0",
":X c #CCEDF0",
">X c #D3EEF1",
",X c #DBEEF1",
"<X c #D6F0F2",
"1X c #DCF1F2",
"2X c #E1E6E9",
"3X c #E4EAED",
"4X c #E9ECEE",
"5X c #E3EEF1",
"6X c #EBEFF1",
"7X c #E4F2F3",
"8X c #ECF2F3",
"9X c #F1F3F4",
/* pixels */
"I.I.I.I.G.G.Z.V.b.x.x.x.x.a.a.x.k.x.x.x.x.x.x.x.x.x.b.x.x.x.x.x.x.f.f.f.f.f.f.f.l.l.z.n.n.N.N.m.m.m.m.m.M.M.M.J.J.G.G.G.G.G.G.G.G.G.G.G.G.G.G.G.Z.Z.Z.Z.Z.Z.A.A.",
"I.I.I.L.G.G.Z.V.b.x.x.a.a.f.a.a.a.x.k.x.x.x.x.x.x.x.x.x.x.x.x.x.f.f.f.f.f.f.f.f.l.l.z.n.N.m.m.m.m.m.m.m.M.M.M.J.J.G.G.G.G.G.G.G.G.G.G.G.G.G.G.G.Z.Z.Z.Z.Z.Z.A.A.",
"I.I.L.L.G.Z.Z.b.b.x.x.f.a.a.a.a.a.a.a.x.k.k.x.x.x.x.x.x.x.x.x.f.f.f.f.f.f.f.f.f.f.l.n.n.m.m.m.m.m.m.m.M.M.J.J.J.J.J.G.G.G.G.G.G.G.G.G.G.G.G.G.G.Z.Z.Z.Z.Z.Z.A.A.",
"L.L.L.G.Z.Z.V.b.x.x.a.a.a.a.a.a.a.a.a.a.a.a.k.k.x.x.x.x.x.f.f.f.f.f.f.s.f.f.f.f.f.l.z.n.m.m.m.m.m.m.m.M.M.J.J.J.J.J.J.G.J.J.J.J.G.G.G.G.G.G.G.G.Z.Z.Z.Z.Z.A.A.A.",
"L.G.G.Z.Z.V.b.x.x.a.a.p.p.p.p.p.p.p.a.a.a.a.a.a.a.a.a.f.f.f.a.a.p.p.p.s.s.s.f.f.f.g.z.n.m.m.m.m.m. X X.X.X+X+XJ.J.J.J.J.J.J.J.J.J.J.J.G.G.G.G.G.Z.Z.Z.Z.Z.A.A.A.",
"Z.Z.Z.Z.V.b.b.x.a.a.p.i.i.i.i.i.i.i.p.p.p.p.p.a.a.a.a.a.p.p.p.p.p.p.p.p.p.s.s.f.f.g.z.m.m.m. X X X X X.X.X+X+X+X+XJ.J.J.J.J.J.J.J.J.J.J.G.G.G.G.Z.Z.Z.Z.Z.A.A.A.",
"Z.Z.Z.b.b.x.k.a.p.i.y.y.y.y.7.y.y.i.i.i.i.i.i.p.p.p.p.p.p.p.u.u.u.u.u.u.u.s.s.f.g.g.g.z.}.}. X X XoXoXXXXXXXXX+X+X+X+XJ.J.J.J.J.J.J.J.J.J.G.G.G.Z.Z.Z.Z.Z.A.A.A.",
"b.b.b.b.x.j.a.p.i.y.y.7.7.>.>.>.7.7.7.7.8.8.i.i.8.8.9.9.u.9.9.8.8.8.8.8.9.s.s.f.d.g.g.}.}.}.oXoXoXoXoXXXXXXXXXXXXX+X+X+X+X+XJ.J.J.J.J.J.J.G.G.G.Z.Z.Z.Z.Z.A.A.A.",
"b.b.b.k.j.a.p.i.y.7.............>.>.>.>.>.>.7.8.8.8.8.8.8.8.8.8.,.,.,.8.8.q.s.s.d.g.g.`.}.oXoXoXOXOXOXOXOXOX#X#XXXXXXX+X+X+X+X+X+XJ.J.J.J.G.G.G.Z.Z.Z.Z.Z.A.A.A.",
"k.k.j.j.a.p.i.y.7.......| | | |  ...>.>.>.>.>.>.>.,.,.,.,.,.,.,.,.,.,.,.,.4.q.s.d.g.`.`.}.|.|.OXOXOXOXOXOXOX#X#X#X#XXXXXXXXX+X+X+X+XJ.J.J.J.G.G.Z.Z.Z.Z.Z.A.A.A.",
"j.j.j.p.p.i.y.7.....| { { { { { { } } } =.=.=.;.;.;.;.:.,.,.:.:.,.,.,.,.,.4.4.q.d.d.`.`.`.|.|.|.OXOXOXOXOXOX#X#X#X#X#X#XXXXXXX@X@X@X@X@XK.K.L.G.Z.Z.Z.Z.Z.Z.A.A.",
"j.p.p.p.i.i.7.X...| { { R R R R R } } } } =.=.=.;.;.;.;.;.-.-.-.-.-.-.-.,.4.4.q.w.d.`.`.'.'.|.|.|.OX&X&X=X=X=X#X#X#X#X#X#X;X@X@X@X@X@X@XK.K.K.G.G.Z.Z.Z.Z.Z.A.A.",
"p.p.p.i.i.7.7.....{ { R R R Y R R R E E } } =.=.=.=.=.=.=.-.-.-.-.-.-.-.-.,.4.4.w.d._.].'.'.|.|.|.&X&X=X=X=X=X=X=X=X#X#X:X;X;X;X;X@X@X@XJ.J.G.G.G.Z.Z.Z.Z.Z.A.A.",
"p.p.p.i.i.7.7... .{ { R Y Y Y Y Y Y T T E E E ' ' =.=.=.-.-.-.-.-.-.-.-.-.<.4.4.w.w._.].'.'.'.|.&X&X&X=X=X=X=X=X=X=X=X=X:X:X:X;X;X@X@X@X+XJ.J.G.G.Z.Z.Z.Z.A.A.A.",
"p.p.i.i.y.7.7...| { R Y J J I I I I Y T T T T / / / ' ' -.-.-.-.-.-.-.-.-.<.2.4.5.w.!._.'.'.'.|.&X&X&X&X=X=X=X=X=X=X>X>X>X>X:X:X;X@X@X@X+XJ.J.G.G.Z.Z.Z.Z.A.A.A.",
"p.i.i.i.7.7.>...| { Y Y I I I I I I I U U T T / / / / ( ( ( -.-.-.-.-.-.-.<.2.4.5.w.!._.].'.'.|.&X&X&X&X=X-X-X-X,X,X,X>X>X>X>X:X;X#X@X@X+XJ.J.G.G.Z.Z.Z.Z.A.A.A.",
"p.i.i.i.8.7.>...| } Y Y I I I I I I I I U U U T / / / ( ( ( ( ( ( ( ( -.-.<.<.2.5.5.!.!.~.'.'.'.$X&X&X&X-X-X-X,X,X,X,X,X,X>X>X>X:X#X@X@X+XJ.J.G.G.G.Z.Z.Z.A.A.A.",
"p.i.i.i.8.7.>.;.} } Y I I I I K K K K K K U U U ^ ^ / ( ( ( ( ( ( ( ( ( -.<.<.2.3.5.t.!.!.].'.'.$X&X&X&X-X-X-X,X,X,X,X,X,X,X>X>X:X#X@X@X+XJ.J.G.G.G.Z.Z.Z.A.A.A.",
"p.p.p.i.8.7.>.;.} } T I I K K K K K S K K L L U ^ ^ ^ ( ( ( ( ( ( ( ( ( ` %.<.<.3.3.3.!.!.!.'.'.'.&X&X*X-X-X,X5X5X5X5X7X1X1X,X>X>X#X#XXX+X+XJ.G.G.Z.Z.Z.Z.A.A.A.",
"p.p.p.9.8.8.>.;.=.} T T I K K S S S S S S S L L L ^ ^ ^ ( ( ( ( ( ( ( ( ` %.*.*.1.3.3.3.!.!.~.'.'.$X&X*X-X-X,X5X5X5X7X7X7X1X1X>X>X#X#XXX+X+XJ.G.G.G.Z.Z.Z.A.A.A.",
"p.p.p.p.8.8.>.;.=.=.T T U K K S S Z Z Z Z S D S L L W ^ ^ ( ( ( ( ( ( ` ` ` *.*.*.1.3.1.3.!.!./.'.$X&X*X-X-X5X5X5X7X7X7X7X7X1X,X>X=X#X@X+X+XJ.J.G.G.Z.Z.Z.Z.A.A.",
"f.s.p.p.9.9.6.>.;.=./ T U L K S Z Z A w w w Z S D D L W W Q Q Q ~ ~ ~ ` ` ` ` %.%.*.*.*.1.R.Q.~.'.[.$X*X*X-X5X5X5X8X8X8X7X7X7X1X>X>X#X#X@X+XJ.J.G.G.Z.Z.Z.A.A.A.",
"f.f.s.s.p.9.8.,.:.=.=./ U U K S Z w q q q q q w w a D D D W W Q Q Q ~ ) ) ) ) ) ) ) %.%.*.1.R.Q./.[.$X*X*X-X3X5X6X8X8X8X8X7X7X1X1X>X:X#X@X+X+XJ.G.G.Z.Z.Z.A.A.A.",
"f.f.f.s.s.e.q.8.,.-.-./ ^ U K S A q 3 % % % 3 3 9 w p a a s c n m m m ) ) ) ) ) ) ) ) ) $.&.1.R.~./.[.%X*X3X3X5X6X8X8X8X8X8X7X7X1X<X>X;X#X@X+XJ.G.G.Z.Z.Z.A.A.A.",
"f.f.f.f.f.e.e.q.4.2.-.( / U L S w q % $ + + $ $ 3 3 w w p a s c v m m N N N N N N N N N ) $.&.R.Q./.[.%X*X2X3X4X6X8X8X8X8X8X8X7X1X<X>X:X;X@X+XJ.G.G.Z.Z.A.A.A.A.",
"l.f.f.f.f.e.e.q.4.2.<.O.( ^ L S q % $ + + + + + $ $ 3 0 0 u u i c m m N N N N M M b m m N ) $.T.E.~.(.{.%X2X3X4X6X8X9X9X9X8X8X7X1X1X>X:X;X;X@X+XJ.G.Z.Z.A.A.A.A.",
"z.z.f.f.f.f.e.q.q.2.<.%.( ^ L S q % + O O o O + + $ 1 3 0 t u i z x b M M M M M b b b b m N $.&.R.Q.(.[.%X2X3X4X6X8X9X9X9X8X8X7X7X1X<X:X;X;X;X+XJ.G.Z.Z.A.A.A.A.",
"z.f.f.f.f.e.e.q.q.2.<.%.( ^ L S q % + O o o o + + @ $ 1 2 t t i z z x M M M M k j j j b b N ) $.T.Q.).[.%X2X3X4X6X9X9X9X9X8X8X7X7X1X<X>X:X;X;X@XJ.G.Z.Z.A.A.A.A.",
"f.f.f.f.f.e.e.q.4.2.<.O.( ^ D S q % + + o o O + + @ 1 1 0 t t y z x x l M l l j j j j j b M B $.Y.E.~.(.%X2X3X4X6X8X9X9X9X8X8X7X7X1X<X>X:X;X;X+XJ.G.Z.Z.A.A.A.A.",
"s.s.s.e.e.e.q.4.2.<.O.( ^ W D p q 3 $ + + + + @ $ 1 1 0 0 t y i z j j j k k j j j h j j x M B $.Y.E.~.(.{.%X2X4X4X8X9X9X9X8X8X7X7X1X<X<X:X;X;X+XJ.G.G.Z.A.A.A.b.",
"9.9.9.9.8.,.,.:.-.O.( ^ W L D p w 3 % $ $ $ $ 1 3 2 0 p u y i z z j j j j j j h h h h j x b B _ Y.E.Q.(.{.%X2X3X4X6X8X9X8X8X8X7X7X1X<X<X:X;X;X+XJ.G.G.Z.A.A.b.b.",
"8.8.6.6.>.;.;.=.o./ ^ L L D a p w w 9 3 3 3 3 0 0 p u u u i z z z j j j j j j h h h h j x b B _ Y.T.Q.).[.%X2X3X4X4X8X8X8X8X8X7X1X1X<X>X:X;X;X@XJ.G.Z.Z.A.A.b.b.",
">.>.>.>.;.=.} T T U L D a a a p p w w w w p p a a s s c c c z x x j j h h h h h h h h j x b N _ &.T.Q.).(.%X%X2X3X4X6X8X8X8X7X7X1X1X<X>X:X;X;X@XJ.G.G.Z.A.A.A.b.",
"......} } } T I I K S a p p p p p a a a a s s s n n n m m m b b x j j h h h h h h h h j x b B _ &.T.Q.~.(.[.%X2X3X3X3X6X7X7X7X1X1X1X>X:X;X;X;X@XJ.G.Z.Z.A.A.A.A.",
"| | | } { Y Y I G Z w w w w w p a a s s n n n Q Q Q ~ ) N N N b b j j h h h g g h h j j b M B _ &.T.Q.~.(.[.%X%X2X3X3X3X5X7X7X1X1X>X>X:X;X;X;X@XJ.G.Z.Z.A.A.b.b.",
"{ { { { Y Y H G Z e 9 9 3 2 0 p a a s n n m ~ ~ ) ) ) ) ) B N M b j j h h g g g h h j x b M B _ &.T.Q.~.(.[.%X%X*X3X3X3X3X5X,X,X,X>X>X:X;X;X;XK.J.G.Z.Z.A.A.b.b.",
"{ { { R Y J H C C q 9 3 3 3 2 0 a a c n m m ) ) ) ) _ _ V B N M M j h h h g g g h h j x b N B _ &.T.E.Q.).(.[.%X%X*X-X-X-X,X,X,X>X>X:X:X;X;X@XJ.J.G.Z.Z.Z.A.b.b.",
"{ { { R Y J H C e & % $ $ 1 1 0 p a c v m m N ) ) ) _ _ V B B M M j j h h h g h h h j x b N B _ &.T.E.Q.~.(.[.$X%X*X*X-X-X-X-X>X>X:X:X;X;X;X@XJ.G.G.Z.Z.Z.A.A.A.",
"{ { { { Y J H C e & $ $ $ $ 1 2 t y i c m m m N B B V V V B N M M j j h h h h h h j j x b N B _ &.T.E.Q.~.(.[.{.$X&X*X*X=X=X=X=X#X#X;X;X;X;X@XJ.G.G.Z.Z.Z.A.A.A.",
"| { { { { J H C * & # @   X X 1 2 t u z z m m m N B B B B B N M M x j j h h h h h j j x b N B _ &.T.E.Q.~./.[.[.$X$X&X&X&X=X=X#X#X#XXX@X@X@XJ.J.G.G.Z.Z.Z.A.A.A.",
"....| { { J H F * & # +     X ; : 4 t y z z z v m N N N N N N M M M j j j j j j j j j b M N B _ &.T.E.Q.~./.'.'.[.$X$X&X&XOXOX#X#XXXXX+X+XJ.J.G.G.Z.Z.Z.A.A.A.A.",
"......| { R J F - & # +     X X ; : 6 6 y i z z x b m N N N M M M M j j j j j j j j j b M N B _ &.T.E.Q.~./.'.'.'.'.'.|.|.|.OXOXXXXX+X+XJ.J.J.G.G.Z.Z.Z.Z.A.A.A.",
"........{ { J F - & # #       . ; ; : 6 6 8 y z z x b b b M M M M M x j j j j j j j j b M M B _ &.T.R.W.~.~.].'.'.'.'.'.|.|.oXoX X.X+XJ.J.J.G.G.Z.Z.Z.Z.Z.A.A.A.",
"X.X.....| { J F - & # #       . ; ; : < > 6 8 8 z z x x b b b b b M x j k j j j j j j x M M B _ $.T.R.W.Q.~.~.].'.'.].`.`.}.}.}. Xm.M.J.J.G.G.G.Z.Z.Z.Z.Z.A.A.A.",
"X.X.....| { J F C & # #       . . ; : : > 7 6 8 g z z x x x b b b b b M k k j j j j j j M M N V _ &.R.R.W.Q.!.!._.].].`.`.`.}.}.m.m.m.G.G.G.Z.Z.Z.Z.Z.Z.Z.Z.A.A.",
"X.X.....| { J H C * = @     . . ; ; : < > 6 7 7 8 g z z z x x x x x x j M k j j j j j j j M N B _ &.&.R.R.W.Q.!.!._.`.`.`.g.z.m.m.m.N.N.G.Z.Z.Z.Z.Z.Z.Z.Z.Z.A.A.",
"...... .{ { J H C * = # @ X X X ; : : < < 6 7 6 8 8 g g h h j j j j j j M k j j j h h h j x M N ) _ &.&.R.R.W.!.!.w.d.g.g.g.g.n.n.N.N.N.Z.Z.Z.Z.Z.Z.Z.Z.Z.A.A.A.",
".... . .{ { J H F e & % $ $ ; ; ; : : < 6 6 6 7 7 7 8 g g h h j j j j j j j j j h h h h h j x N B ) _ &.1.3.3.5.t.w.d.d.d.g.g.n.n.N.N.V.Z.Z.Z.Z.Z.Z.Z.A.A.A.A.A.",
".. . . .{ ] Y H G e q 9 1 1 1 ; : 4 6 6 6 6 6 6 7 7 5 5 7 f g h j j j j j j j h h g g g g j x b N ) ) $.*.1.3.3.5.w.w.d.d.g.g.h.n.b.b.V.Z.Z.Z.Z.Z.A.A.A.A.A.A.A.",
" . . .{ { ] Y H G r r 9 9 0 0 0 0 t t t 8 8 6 6 7 7 7 7 5 5 f h j j j j j j h h g g f f g g j x m N ) ) %.*.3.3.5.w.q.s.s.f.f.h.n.b.b.V.Z.Z.Z.Z.A.A.A.A.A.A.A.A.",
" . .| { { ] Y Y K G r r 0 0 0 p p t t y y 8 8 6 7 7 7 5 5 5 5 f h j j j j j h h g f f f f g h x x N ) ) ` *.<.1.2.4.q.s.s.f.f.h.n.n.b.V.Z.Z.Z.Z.A.A.A.A.A.A.A.A.",
" . . .| { ] Y I I K a a u u u u u u u u i y 8 6 7 7 > , , 5 5 f h j j j j j h h g f f f f f g z x m N ) ) %.*.1.2.4.q.e.s.f.f.h.n.n.b.V.Z.Z.Z.Z.A.A.A.A.A.A.A.A.",
" . . . .} } [ T U I K a a a a s s s i u u i y 8 6 6 > > > 5 5 7 g h j j j j h h f f f 5 5 f g z x m m ) ` %.*.<.2.4.q.e.s.f.f.f.n.n.b.V.Z.Z.Z.Z.A.A.A.A.A.A.A.A.",
"..........} } [ T U P L d d d s s s s i i i y 8 6 6 > > > 7 7 7 g h j x j j h h f f 5 5 5 f g z x m m ) ` %.*.1.2.4.q.e.s.f.f.f.n.n.b.b.Z.Z.Z.Z.Z.Z.A.A.A.A.A.A.",
"7.7.7.>.>.;.;.=.o./ ! ! W W d d d d s s i u i 8 7 6 6 > 6 7 7 7 g g z z x j h g f 5 5 5 5 7 g z v m ~ ` %.%.*.1.2.4.w.w.d.d.g.g.l.n.b.b.V.Z.Z.Z.Z.Z.A.A.A.A.A.A.",
"i.8.8.8.8.6.,.;.=.+.o.! ! ! ! W n n d d i i i i 7 6 6 6 6 7 7 8 g z z z z z h g 7 7 5 5 7 8 z z m m ~ ` %.*.1.3.3.w.w.w.d.d.g.g.z.n.b.b.b.Z.Z.Z.Z.Z.Z.A.A.A.A.A.",
"p.p.p.p.9.9.8.,.,.:.@.#.( ~ ! ! ! n n d d i i i y 7 6 6 6 8 8 8 i z z z z z z g 8 8 7 7 8 8 z v n Q ~ %.*.*.3.3.3.t.w.w.g.g.g.g.z.n.N.N.D.Z.Z.Z.Z.Z.Z.A.A.A.A.A.",
"f.f.f.f.f.s.e.q.q.2.2.@.O.O.~ ~ ! ! n n d d i i i y 7 7 8 8 8 i i z z z z z z i i 8 8 8 i i z v m ~ O.%.*.1.3.3.t.t.w.w.`.`.g.g.z.m.N.N.N.G.Z.Z.Z.Z.Z.Z.Z.A.A.A.",
"N.n.n.n.l.f.f.e.q.q.2.2.%.@.O.#.~ ! ! n d d d i i u i i i i i i i z z v v z z i i i i i i i n n Q O.%.%.1.3.3.t.t.!.!.!.^.`.`.}.z.z.m.N.N.G.Z.Z.Z.Z.Z.Z.Z.Z.A.A.",
"N.N.N.N.N.z.g.g.r.w.t.0.2.%.%.O.#.#.! ! ! d d d d i i i i i i i d n n n n n n d i i i i d n n ! ~ O.%.2.2.t.t.t.w.!.!.^.^.`.`.}.z.z.m.N.N.G.G.Z.Z.Z.Z.Z.Z.Z.A.A.",
"J.J.J.M.m.m.z.z.g.r.w.t.0.2.2.@.o.#.#.! ! P d d d d d d d d d d n n n n n n n d d d d d d n ! ! #.@.2.2.0.t.w.w.w.!.^.^.^.`.`.}.z.m.m.N.N.N.Z.Z.Z.Z.Z.Z.Z.Z.A.A.",
"U.J.J.J.J.m.m.z.z.g.r.r.w.0.0.:.@.@.o.o.o.! ! ! P P P P d d ! ! ! ! ! ! ! ! ! ! ! ! P ! ! ! #.o.@.:.2.0.q.w.w.w.r.^.^.`.`.`.`.}.z.m.m.N.N.N.Z.Z.Z.Z.Z.A.Z.A.A.A.",
"U.U.J.J.J.m.m.n.z.z.g.r.r.q.q.0.6.:.:.+.+.o.o.o.o.o.! ! ! ! ! ! #.o.o.o.o.o.o.o.o.o.o.o.o.o.+.@.:.6.q.q.e.r.r.r.r.g.g.`.`.`.z.z.z.m.N.N.N.b.Z.Z.Z.Z.Z.A.Z.A.A.A.",
"U.U.U.J.G.D.N.N.n.z.z.g.r.e.e.q.8.6.6.:.:.:.:.+.+.+.+.+.+.+.+.+.+.+.:.:.:.:.:.+.+.+.+.+.:.:.:.6.8.q.e.e.e.f.g.g.g.g.g.g.g.z.z.z.N.N.N.N.N.Z.Z.Z.Z.Z.Z.A.A.A.A.A.",
"G.G.G.G.G.G.N.N.N.z.z.z.f.f.f.e.e.8.8.8.6.6.6.6.:.,.,.,.,.:.:.:.:.6.6.6.6.6.6.6.6.6.6.6.6.6.8.8.9.e.f.f.f.f.g.g.g.g.g.z.z.z.z.n.N.N.N.N.Z.Z.Z.Z.Z.Z.Z.A.A.A.A.A.",
"G.G.G.G.G.G.G.b.b.b.b.l.l.l.f.f.f.f.9.9.9.9.8.8.8.8.8.8.8.8.8.8.9.9.9.9.9.9.9.9.9.9.9.9.9.9.9.s.f.f.x.l.l.l.l.z.z.z.z.z.z.z.n.N.N.N.b.Z.Z.Z.Z.Z.Z.Z.A.A.A.A.A.A.",
"Z.Z.Z.Z.Z.Z.Z.Z.b.b.b.b.b.l.l.x.x.x.a.p.p.p.p.p.p.p.p.p.p.p.p.p.p.p.p.p.p.p.p.p.p.p.p.p.a.f.x.x.x.x.l.b.b.b.b.b.n.n.n.n.n.b.b.b.b.b.b.Z.Z.Z.Z.Z.Z.A.A.A.A.A.A.A.",
"Z.Z.Z.Z.Z.Z.Z.Z.Z.Z.b.b.b.b.b.b.b.b.x.x.j.j.j.j.j.j.j.j.j.j.j.j.x.x.x.x.x.x.x.b.x.x.b.x.b.b.b.b.b.b.b.b.b.b.b.b.b.b.b.b.b.b.b.b.b.b.Z.Z.Z.Z.Z.Z.A.A.A.A.A.A.A.A.",
"Z.Z.Z.Z.Z.Z.Z.Z.Z.Z.A.A.A.b.b.b.b.b.b.b.b.b.b.b.b.b.b.b.b.b.b.b.b.b.b.b.b.b.b.b.b.b.b.b.b.A.A.A.A.Z.Z.Z.Z.A.b.b.b.b.b.b.b.b.b.b.b.V.Z.Z.Z.A.A.A.A.A.A.A.A.A.A.A.",
"A.A.A.A.A.A.A.A.A.A.A.A.A.A.A.A.A.b.b.b.b.b.b.b.b.b.b.b.b.A.b.A.A.A.A.A.A.A.A.A.Z.Z.Z.Z.A.A.Z.A.A.A.Z.Z.Z.Z.b.b.b.b.b.b.b.b.b.b.b.A.A.A.A.A.A.A.A.A.A.A.A.A.A.A.",
"A.A.A.A.A.A.A.A.A.A.A.A.A.A.A.A.A.A.A.A.A.A.A.A.A.A.A.A.A.A.A.A.A.A.A.A.A.A.A.A.Z.Z.Z.Z.A.Z.A.A.A.A.Z.Z.A.A.Z.b.V.b.b.b.b.b.b.b.b.A.A.A.A.A.A.A.A.A.A.b.A.A.A.A.",
"A.A.A.A.A.A.A.A.A.A.A.A.A.A.A.A.A.A.A.A.A.A.A.A.A.A.A.A.A.A.A.A.A.A.A.A.A.A.A.A.Z.Z.Z.Z.A.A.A.A.A.A.A.A.A.A.A.A.A.b.b.b.b.b.b.b.b.b.A.A.A.A.A.b.A.A.b.b.b.b.A.A.",
"A.A.A.A.A.A.A.A.A.A.A.A.A.A.A.A.A.A.A.A.A.A.A.A.A.A.A.A.A.A.A.A.A.A.A.A.A.A.A.A.A.A.Z.Z.Z.Z.A.A.A.A.A.A.A.A.A.A.A.A.b.b.b.b.b.A.b.b.b.A.A.A.A.A.A.A.b.b.A.A.A.A.",
"b.b.b.b.A.A.A.A.A.A.b.b.b.b.b.b.A.b.b.A.A.A.A.A.b.A.A.A.A.A.A.A.A.A.A.A.A.A.A.A.A.A.A.A.A.A.A.A.A.A.A.A.A.A.A.A.A.A.b.b.A.b.A.A.b.b.b.b.A.A.A.A.A.b.b.b.A.b.b.b.",
"b.b.b.b.b.b.b.b.b.b.b.b.b.b.b.b.b.b.b.b.b.b.A.A.b.b.b.b.b.b.b.b.A.A.A.A.A.A.A.A.A.A.A.A.A.A.A.A.A.A.A.A.A.A.A.A.b.b.b.b.b.A.b.b.A.A.b.b.A.A.b.b.b.b.b.b.b.b.b.b.",
"b.b.b.b.b.b.b.b.b.b.b.b.b.b.b.b.b.b.b.b.b.b.b.b.b.b.b.b.b.b.b.b.b.b.b.b.b.b.A.A.A.A.A.A.A.A.A.A.A.A.A.b.b.b.b.A.b.b.b.A.A.A.b.b.A.A.b.b.b.b.b.b.b.b.b.b.b.b.b.b.",
"b.b.b.b.b.b.b.b.b.b.b.b.b.b.b.b.b.b.b.b.b.b.b.b.b.b.b.b.b.b.b.b.b.b.b.b.b.b.b.b.A.A.A.A.A.A.A.b.A.b.b.b.b.b.A.A.b.A.A.A.A.A.b.b.A.A.b.b.b.b.b.b.b.b.b.b.b.b.b.b.",
"b.b.b.b.b.b.b.b.b.b.b.b.b.b.b.b.b.b.b.b.b.b.b.b.b.b.b.b.b.b.b.b.b.b.b.b.b.b.b.b.A.A.A.A.A.A.A.b.b.b.b.b.b.b.A.A.A.A.A.A.A.A.A.b.A.b.b.b.b.b.b.b.b.b.b.b.b.b.b.b.",
"b.b.b.b.b.b.b.b.b.b.b.b.b.b.b.b.b.b.b.b.b.b.b.b.b.b.b.b.b.b.b.b.b.b.b.b.b.b.b.b.b.b.A.A.A.A.A.A.b.b.b.b.b.b.b.A.A.A.A.A.A.A.A.b.A.b.b.b.b.b.b.b.b.b.b.b.b.b.b.b.",
"b.b.b.b.b.b.b.b.b.b.b.b.b.b.b.b.b.b.b.b.b.b.b.b.b.b.b.b.b.b.b.b.b.b.b.b.b.b.b.b.b.A.A.A.A.A.A.A.b.b.b.b.b.b.b.A.A.A.A.A.A.A.A.b.A.b.b.b.b.b.b.b.b.b.b.b.b.b.b.b."
};
